<?xml version="1.0" encoding="UTF-8" standalone="no"?>
<!DOCTYPE svg PUBLIC "-//W3C//DTD SVG 1.1//EN" "http://www.w3.org/Graphics/SVG/1.1/DTD/svg11.dtd">
<svg width="100%" height="100%" viewBox="0 0 583 524" version="1.1" xmlns="http://www.w3.org/2000/svg" xmlns:xlink="http://www.w3.org/1999/xlink" xml:space="preserve" xmlns:serif="http://www.serif.com/" style="fill-rule:evenodd;clip-rule:evenodd;stroke-linejoin:round;stroke-miterlimit:2;">
    <g transform="matrix(0.762002,0.647575,-0.647575,0.762002,272.353,-235.78)">
        <path d="M333.303,387.45C332.511,387.033 387.412,334.799 388.883,335.536C390.531,336.361 391.958,338.013 392.826,338.85C393.243,339.252 350.017,398.472 347.157,400.463C346.435,400.966 333.303,389.98 333.303,387.45Z" style="fill:rgb(145,0,72);"/>
        <path d="M332.313,387.627L332.303,387.56C332.286,387.429 332.276,387.18 332.452,386.87C332.577,386.65 333.072,386.06 333.903,385.186C341.415,377.287 378.37,342.211 386.653,335.759C387.524,335.08 388.145,334.696 388.432,334.599C388.847,334.459 389.15,334.551 389.331,334.642C391.075,335.515 392.602,337.245 393.52,338.13C393.67,338.274 393.948,338.594 393.787,339.154C393.741,339.317 393.329,340.039 392.554,341.181C387.169,349.112 363.497,381.543 352.924,395.116C350.182,398.636 348.263,400.912 347.729,401.284C347.538,401.416 347.23,401.545 346.789,401.444C346.464,401.37 345.766,401.001 344.862,400.362C342.206,398.486 337.223,394.218 334.472,391.121C333.583,390.121 332.921,389.226 332.597,388.555C332.429,388.206 332.34,387.892 332.313,387.627ZM388.829,336.647C388.729,336.711 388.61,336.79 388.496,336.873C387.592,337.526 386.104,338.763 384.188,340.43C371.843,351.17 342.006,379.567 335.352,386.565C334.933,387.005 334.572,387.415 334.369,387.651C334.407,387.724 334.458,387.804 334.51,387.896C334.814,388.423 335.326,389.071 335.967,389.793C338.628,392.788 343.448,396.915 346.016,398.729C346.333,398.953 346.69,399.171 346.939,399.318C347.686,398.542 349.235,396.598 351.346,393.887C361.898,380.34 385.524,347.973 390.899,340.057C391.164,339.667 391.404,339.296 391.583,339.015C390.861,338.273 389.909,337.291 388.829,336.647ZM334.237,387.093C334.154,386.85 333.988,386.681 333.769,386.566C333.988,386.681 334.152,386.87 334.237,387.093Z"/>
    </g>
    <g transform="matrix(-0.99026,0.139232,-0.139232,-0.99026,655.555,637.012)">
        <path d="M333.303,387.45C332.511,387.033 387.412,334.799 388.883,335.536C390.531,336.361 391.958,338.013 392.826,338.85C393.243,339.252 350.017,398.472 347.157,400.463C346.435,400.966 333.303,389.98 333.303,387.45Z" style="fill:rgb(145,0,72);"/>
        <path d="M332.313,387.627L332.303,387.56C332.286,387.429 332.276,387.18 332.452,386.87C332.577,386.65 333.072,386.06 333.903,385.186C341.415,377.287 378.37,342.211 386.653,335.759C387.524,335.08 388.145,334.696 388.432,334.599C388.847,334.459 389.15,334.551 389.331,334.642C391.075,335.515 392.602,337.245 393.52,338.13C393.67,338.274 393.948,338.594 393.787,339.154C393.741,339.317 393.329,340.039 392.554,341.181C387.169,349.112 363.497,381.543 352.924,395.116C350.182,398.636 348.263,400.912 347.729,401.284C347.538,401.416 347.23,401.545 346.789,401.444C346.464,401.37 345.766,401.001 344.862,400.362C342.206,398.486 337.223,394.218 334.472,391.121C333.583,390.121 332.921,389.226 332.597,388.555C332.429,388.206 332.34,387.892 332.313,387.627ZM346.939,399.318C347.686,398.542 349.235,396.598 351.346,393.887C361.898,380.34 385.524,347.973 390.899,340.057C391.164,339.667 391.404,339.296 391.583,339.015C390.861,338.273 389.909,337.291 388.829,336.647C388.729,336.711 388.61,336.79 388.496,336.873C387.592,337.526 386.104,338.763 384.188,340.43C371.843,351.17 342.006,379.567 335.352,386.565C334.933,387.005 334.572,387.415 334.369,387.651C334.407,387.724 334.458,387.804 334.51,387.896C334.814,388.423 335.326,389.071 335.967,389.793C338.628,392.788 343.448,396.915 346.016,398.729C346.333,398.953 346.69,399.171 346.939,399.318ZM334.237,387.093C334.154,386.85 333.988,386.681 333.769,386.566C333.988,386.681 334.152,386.87 334.237,387.093Z"/>
    </g>
    <g transform="matrix(-0.640116,-0.768278,0.768278,-0.640116,235.076,916.183)">
        <path d="M333.303,387.45C332.511,387.033 387.412,334.799 388.883,335.536C390.531,336.361 391.958,338.013 392.826,338.85C393.243,339.252 350.017,398.472 347.157,400.463C346.435,400.966 333.303,389.98 333.303,387.45Z" style="fill:rgb(145,0,72);"/>
        <path d="M332.313,387.627L332.303,387.56C332.286,387.429 332.276,387.18 332.452,386.87C332.577,386.65 333.072,386.06 333.903,385.186C341.415,377.287 378.37,342.211 386.653,335.759C387.524,335.08 388.145,334.696 388.432,334.599C388.847,334.459 389.15,334.551 389.331,334.642C391.075,335.515 392.602,337.245 393.52,338.13C393.67,338.274 393.948,338.594 393.787,339.154C393.741,339.317 393.329,340.039 392.554,341.181C387.169,349.112 363.497,381.543 352.924,395.116C350.182,398.636 348.263,400.912 347.729,401.284C347.538,401.416 347.23,401.545 346.789,401.444C346.464,401.37 345.766,401.001 344.862,400.362C342.206,398.486 337.223,394.218 334.472,391.121C333.583,390.121 332.921,389.226 332.597,388.555C332.429,388.206 332.34,387.892 332.313,387.627ZM334.237,387.093C334.154,386.85 333.988,386.681 333.769,386.566C333.988,386.681 334.152,386.87 334.237,387.093ZM346.939,399.318C347.686,398.542 349.235,396.598 351.346,393.887C361.898,380.34 385.524,347.973 390.899,340.057C391.164,339.667 391.404,339.296 391.583,339.015C390.861,338.273 389.909,337.291 388.829,336.647C388.729,336.711 388.61,336.79 388.496,336.873C387.592,337.526 386.104,338.763 384.188,340.43C371.843,351.17 342.006,379.567 335.352,386.565C334.933,387.005 334.572,387.415 334.369,387.651C334.407,387.724 334.458,387.804 334.51,387.896C334.814,388.423 335.326,389.071 335.967,389.793C338.628,392.788 343.448,396.915 346.016,398.729C346.333,398.953 346.69,399.171 346.939,399.318Z"/>
    </g>
    <g id="Layer1">
        <g transform="matrix(0.996747,0.080591,-0.080591,0.996747,16.8634,-18.9561)">
            <path d="M221.728,237.611C221.76,237.121 231.291,237.508 232.505,234.418C232.621,234.123 232.628,232.047 231.19,227.209C228.544,218.309 221.047,200.952 220.222,197.791C219.73,195.908 217.002,187.71 216.796,186.573C215.808,181.114 212.953,178.138 216.581,172.696C219.329,168.574 234.559,163.754 242.877,161.627C249.048,160.05 259.63,156.785 263.113,156.205C264.875,155.911 271.687,154.477 272.343,154.678C275.017,155.499 273.375,140.519 273.377,141.55C273.377,141.957 221.804,161.789 217.587,163.122C211.465,165.056 209.297,169.933 208.992,170.747C207.933,173.58 208.319,178.124 208.334,181.067C208.357,185.745 210.234,190.748 210.704,195.357C210.936,197.626 215.502,212.077 216.384,217.373C216.951,220.77 221.097,235.719 221.728,237.611Z" style="fill:rgb(145,0,72);"/>
            <path d="M272.667,140.8C272.907,140.551 273.182,140.483 273.448,140.501C273.643,140.514 273.873,140.577 274.087,140.789C274.117,140.819 274.337,141.049 274.409,141.546C274.609,142.932 275.33,151.226 274.348,154.095C273.895,155.42 273.062,155.896 272.145,155.661C272.015,155.672 271.258,155.739 270.55,155.851C268.213,156.222 264.509,156.986 263.278,157.191C259.809,157.769 249.27,161.025 243.124,162.596C237.358,164.07 228.235,166.847 222.347,169.784C219.999,170.955 218.173,172.111 217.413,173.25C215.452,176.192 215.595,178.333 216.215,180.638C216.679,182.368 217.38,184.18 217.78,186.395C217.985,187.524 220.701,195.668 221.189,197.538C222.013,200.696 229.505,218.034 232.148,226.924C233.192,230.434 233.493,232.543 233.543,233.597C233.575,234.268 233.49,234.647 233.436,234.784C233.019,235.845 231.894,236.665 230.381,237.191C227.609,238.153 223.472,238.234 222.265,238.454C222.145,238.531 222.006,238.583 221.856,238.603C221.382,238.664 220.931,238.381 220.779,237.927C220.144,236.021 215.968,220.96 215.398,217.537C214.513,212.226 209.942,197.734 209.709,195.458C209.236,190.819 207.358,185.781 207.334,181.072C207.319,178.027 206.959,173.328 208.056,170.397C208.383,169.521 210.697,164.25 217.286,162.168C221.075,160.97 263.162,144.811 271.542,141.295C272.018,141.095 272.449,140.9 272.667,140.8ZM222.708,237.809C222.698,237.858 222.685,237.905 222.668,237.951C222.686,237.904 222.699,237.856 222.708,237.809ZM222.72,237.736L222.717,237.757L222.719,237.748L222.72,237.736ZM272.564,143.033L272.315,143.139C263.91,146.666 221.69,162.874 217.888,164.075C212.233,165.862 210.21,170.346 209.929,171.098C208.906,173.833 209.32,178.221 209.334,181.062C209.357,185.709 211.232,190.677 211.699,195.255C211.93,197.518 216.49,211.927 217.371,217.209C217.879,220.257 221.294,232.679 222.407,236.419C222.483,236.409 222.562,236.4 222.644,236.392C224.103,236.245 226.896,236.108 229.1,235.495C229.757,235.312 230.359,235.09 230.835,234.798C231.148,234.607 231.408,234.398 231.541,234.126C231.528,233.841 231.379,231.355 230.231,227.494C227.582,218.585 220.08,201.208 219.254,198.043C218.76,196.148 216.019,187.895 215.812,186.751C215.423,184.598 214.735,182.838 214.283,181.157C213.527,178.344 213.356,175.731 215.749,172.141C216.638,170.808 218.708,169.364 221.454,167.994C227.456,165.001 236.751,162.161 242.629,160.659C248.825,159.075 259.452,155.801 262.949,155.218C264.364,154.983 269.027,154.014 271.173,153.739C271.668,153.676 272.068,153.664 272.336,153.68C272.425,153.437 272.622,152.862 272.693,152.371C273.075,149.719 272.781,145.276 272.564,143.033Z"/>
        </g>
        <g transform="matrix(0.996786,-0.0801137,0.0801137,0.996786,-24.008,27.3477)">
            <path d="M318.342,332.853C320.199,329.289 325.004,304.622 327.026,298.555C327.89,295.963 329.474,288.945 329.406,288.876C329.233,288.703 327.179,292.747 327.026,293.002C324.376,297.419 303.995,336.989 306.082,338.381C310.555,341.363 337.827,345.142 346.066,346.79C349.695,347.516 359.864,348.7 360.188,348.377C360.362,348.202 357.57,346.77 357.014,346.631C353.595,345.776 320.667,332.853 318.342,332.853Z" style="fill:rgb(145,0,72);"/>
            <path d="M319.708,332.137C320.578,332.376 321.792,332.757 323.253,333.258C332.959,336.586 354.528,344.979 357.257,345.661C357.643,345.758 359.017,346.404 359.927,346.93C360.402,347.204 360.76,347.468 360.893,347.613C361.156,347.9 361.196,348.185 361.196,348.362C361.195,348.644 361.094,348.885 360.895,349.084C360.798,349.181 360.614,349.329 360.289,349.391C360.079,349.431 359.585,349.443 358.888,349.404C355.971,349.241 348.805,348.357 345.87,347.771C340.099,346.616 324.995,344.416 314.917,342.177C310.435,341.181 306.921,340.142 305.528,339.213C305.251,339.028 304.987,338.691 304.94,338.117C304.878,337.358 305.344,335.596 306.271,333.191C310.521,322.166 324.04,296.035 326.169,292.487C326.312,292.249 328.069,288.838 328.546,288.288C329.195,287.54 329.894,287.949 330.113,288.169C330.208,288.264 330.345,288.426 330.394,288.712C330.402,288.76 330.42,288.955 330.364,289.269C330.146,290.497 328.764,296.504 327.975,298.871C326.099,304.498 321.82,326.05 319.708,332.137ZM326.938,295.196C323.193,302.049 311.935,324.057 308.137,333.91C307.514,335.528 307.109,337.188 306.979,337.752C308.449,338.55 311.529,339.375 315.351,340.224C325.415,342.461 340.499,344.657 346.263,345.809C348.172,346.191 351.92,346.704 355.044,347.05C349.048,344.986 331.197,338.096 322.604,335.15C320.338,334.373 318.775,333.853 318.342,333.853C317.993,333.853 317.669,333.671 317.487,333.372C317.306,333.073 317.294,332.701 317.455,332.391C319.304,328.843 324.064,304.279 326.078,298.239C326.324,297.5 326.63,296.394 326.938,295.196Z"/>
        </g>
        <g transform="matrix(0.996786,-0.0801137,0.0801137,0.996786,-93.128,66.8908)">
            <path d="M318.342,332.853C320.199,329.289 325.004,304.622 327.026,298.555C327.89,295.963 329.474,288.945 329.406,288.876C329.233,288.703 327.179,292.747 327.026,293.002C324.376,297.419 303.995,336.989 306.082,338.381C310.555,341.363 337.827,345.142 346.066,346.79C349.695,347.516 359.864,348.7 360.188,348.377C360.362,348.202 357.57,346.77 357.014,346.631C353.595,345.776 320.667,332.853 318.342,332.853Z" style="fill:rgb(145,0,72);"/>
            <path d="M319.708,332.137C320.578,332.376 321.792,332.757 323.253,333.258C332.959,336.586 354.528,344.979 357.257,345.661C357.643,345.758 359.017,346.404 359.927,346.93C360.402,347.204 360.76,347.468 360.893,347.613C361.156,347.9 361.196,348.185 361.196,348.362C361.195,348.644 361.094,348.885 360.895,349.084C360.798,349.181 360.614,349.329 360.289,349.391C360.079,349.431 359.585,349.443 358.888,349.404C355.971,349.241 348.805,348.357 345.87,347.771C340.099,346.616 324.995,344.416 314.917,342.177C310.435,341.181 306.921,340.142 305.528,339.213C305.251,339.028 304.987,338.691 304.94,338.117C304.878,337.358 305.344,335.596 306.271,333.191C310.521,322.166 324.04,296.035 326.169,292.487C326.312,292.249 328.069,288.838 328.546,288.288C329.195,287.54 329.894,287.949 330.113,288.169C330.208,288.264 330.345,288.426 330.394,288.712C330.402,288.76 330.42,288.955 330.364,289.269C330.146,290.497 328.764,296.504 327.975,298.871C326.099,304.498 321.82,326.05 319.708,332.137ZM326.938,295.196C323.193,302.049 311.935,324.057 308.137,333.91C307.514,335.528 307.109,337.188 306.979,337.752C308.449,338.55 311.529,339.375 315.351,340.224C325.415,342.461 340.499,344.657 346.263,345.809C348.172,346.191 351.92,346.704 355.044,347.05C349.048,344.986 331.197,338.096 322.604,335.15C320.338,334.373 318.775,333.853 318.342,333.853C317.993,333.853 317.669,333.671 317.487,333.372C317.306,333.073 317.294,332.701 317.455,332.391C319.304,328.843 324.064,304.279 326.078,298.239C326.324,297.5 326.63,296.394 326.938,295.196Z"/>
        </g>
        <g transform="matrix(0.996786,-0.0801137,0.0801137,0.996786,-60.872,48.8874)">
            <path d="M318.342,332.853C320.199,329.289 325.004,304.622 327.026,298.555C327.89,295.963 329.474,288.945 329.406,288.876C329.233,288.703 327.179,292.747 327.026,293.002C324.376,297.419 303.995,336.989 306.082,338.381C310.555,341.363 337.827,345.142 346.066,346.79C349.695,347.516 359.864,348.7 360.188,348.377C360.362,348.202 357.57,346.77 357.014,346.631C353.595,345.776 320.667,332.853 318.342,332.853Z" style="fill:rgb(145,0,72);"/>
            <path d="M319.708,332.137C320.578,332.376 321.792,332.757 323.253,333.258C332.959,336.586 354.528,344.979 357.257,345.661C357.643,345.758 359.017,346.404 359.927,346.93C360.402,347.204 360.76,347.468 360.893,347.613C361.156,347.9 361.196,348.185 361.196,348.362C361.195,348.644 361.094,348.885 360.895,349.084C360.798,349.181 360.614,349.329 360.289,349.391C360.079,349.431 359.585,349.443 358.888,349.404C355.971,349.241 348.805,348.357 345.87,347.771C340.099,346.616 324.995,344.416 314.917,342.177C310.435,341.181 306.921,340.142 305.528,339.213C305.251,339.028 304.987,338.691 304.94,338.117C304.878,337.358 305.344,335.596 306.271,333.191C310.521,322.166 324.04,296.035 326.169,292.487C326.312,292.249 328.069,288.838 328.546,288.288C329.195,287.54 329.894,287.949 330.113,288.169C330.208,288.264 330.345,288.426 330.394,288.712C330.402,288.76 330.42,288.955 330.364,289.269C330.146,290.497 328.764,296.504 327.975,298.871C326.099,304.498 321.82,326.05 319.708,332.137ZM326.938,295.196C323.193,302.049 311.935,324.057 308.137,333.91C307.514,335.528 307.109,337.188 306.979,337.752C308.449,338.55 311.529,339.375 315.351,340.224C325.415,342.461 340.499,344.657 346.263,345.809C348.172,346.191 351.92,346.704 355.044,347.05C349.048,344.986 331.197,338.096 322.604,335.15C320.338,334.373 318.775,333.853 318.342,333.853C317.993,333.853 317.669,333.671 317.487,333.372C317.306,333.073 317.294,332.701 317.455,332.391C319.304,328.843 324.064,304.279 326.078,298.239C326.324,297.5 326.63,296.394 326.938,295.196Z"/>
        </g>
        <g transform="matrix(1.15335,-0.0166772,0.0176428,1.22012,-38.3191,-77.6125)">
            <path d="M196.371,393.23C196.076,393.399 215.607,366.817 217.229,365.195C217.569,364.855 221.897,372.573 225.925,380.041C228.605,385.009 231.151,389.867 232.302,392.169L196.371,393.23Z" style="fill:rgb(145,0,72);"/>
            <path d="M196.469,394.047C196.389,394.055 196.32,394.05 196.265,394.044C196.047,394.019 195.875,393.93 195.739,393.794C195.626,393.681 195.416,393.441 195.529,393.024C195.54,392.98 195.725,392.633 196.119,392.075C199.095,387.86 215.133,366.098 216.599,364.632C216.798,364.433 217.459,364.093 218.1,364.789C219.097,365.871 223.029,372.867 226.697,379.669C229.382,384.646 231.933,389.513 233.086,391.819C233.211,392.068 233.194,392.361 233.042,392.596C232.889,392.832 232.621,392.979 232.329,392.988L196.469,394.047ZM195.971,392.503C195.955,392.511 195.939,392.519 195.923,392.529L195.971,392.503ZM195.983,392.497L195.971,392.503L196.016,392.482L195.983,392.497ZM196.228,392.422C196.168,392.43 196.098,392.447 196.023,392.48C196.088,392.452 196.157,392.433 196.228,392.422ZM196.243,392.419L196.237,392.42L196.259,392.418L196.243,392.419ZM217.25,366.471C214.106,370.355 201.516,387.454 198.005,392.362L230.946,391.389C229.642,388.837 227.446,384.666 225.152,380.413C221.993,374.555 218.661,368.535 217.25,366.471Z"/>
        </g>
        <g transform="matrix(1,0,0,1,-0.0629267,-2.31507)">
            <path d="M390.864,203.111C390.755,201.2 393.572,190.555 395.097,189.792C396.167,189.257 419.943,221.48 419.281,222.142C418.001,223.421 412.138,227.247 411.586,226.696C410.064,225.173 395.866,193.938 395.703,194.356C395.37,195.209 391.518,202.729 390.864,203.111Z" style="fill:rgb(145,0,72);"/>
            <path d="M395.747,196.561C394.806,198.428 393.349,201.191 392.437,202.663C391.973,203.411 391.551,203.868 391.368,203.975C391.068,204.15 390.698,204.157 390.391,203.992C390.085,203.827 389.886,203.515 389.866,203.168C389.787,201.778 391.159,195.934 392.556,192.287C392.998,191.132 393.449,190.19 393.846,189.64C394.121,189.258 394.406,189.019 394.65,188.898C394.867,188.789 395.205,188.701 395.637,188.904C395.892,189.023 396.424,189.466 397.12,190.23C399.937,193.316 406.701,202.196 412.171,209.727C416.329,215.45 419.73,220.418 420.176,221.548C420.455,222.254 420.14,222.697 419.988,222.849C418.914,223.923 414.764,226.71 412.85,227.484C412.352,227.685 411.948,227.76 411.696,227.748C411.321,227.732 411.058,227.582 410.879,227.403C410.583,227.107 409.812,225.788 408.797,223.798C405.302,216.947 398.279,201.727 395.747,196.561ZM395.25,191.156C394.985,191.623 394.706,192.262 394.423,193.002C393.902,194.363 393.373,196.052 392.932,197.667C393.836,195.949 394.63,194.355 394.772,193.992C394.904,193.653 395.14,193.488 395.386,193.404C395.589,193.336 395.845,193.309 396.141,193.449C396.223,193.488 396.344,193.556 396.471,193.697C396.543,193.777 396.752,194.106 397.037,194.664C398.983,198.48 406.82,215.523 410.578,222.889C411.223,224.153 411.72,225.116 412.036,225.628C412.372,225.488 412.931,225.244 413.393,224.987C414.969,224.11 416.988,222.758 418.06,221.887C417.152,220.483 413.946,215.573 410.553,210.902C404.824,203.014 397.671,193.616 395.25,191.156Z"/>
        </g>
        <g transform="matrix(-0.118568,0.523141,-0.523141,-0.118568,621.801,149.559)">
            <path d="M331.549,388.214C331.414,387.904 331.369,387.516 331.474,387.03C331.507,386.873 331.589,386.587 331.833,386.235C332.018,385.966 332.509,385.398 333.276,384.591C340.802,376.677 377.824,341.54 386.122,335.077C387.111,334.306 387.83,333.891 388.155,333.781C388.877,333.537 389.402,333.711 389.718,333.869C391.545,334.784 393.158,336.58 394.12,337.508C394.395,337.772 394.913,338.36 394.618,339.392C394.567,339.573 394.133,340.393 393.269,341.666C387.879,349.604 364.187,382.063 353.606,395.648C350.777,399.28 348.774,401.609 348.222,401.993C347.892,402.223 347.36,402.462 346.595,402.286C346.222,402.201 345.403,401.803 344.363,401.068C341.67,399.165 336.616,394.836 333.826,391.695C332.87,390.62 332.167,389.652 331.819,388.931C331.697,388.678 331.609,388.438 331.549,388.214ZM335.466,387.703C335.826,388.211 336.442,389.044 337.04,389.689C339.857,392.728 344.548,396.716 346.788,398.22C347.586,397.302 348.921,395.595 350.664,393.356C361.207,379.821 384.814,347.481 390.184,339.572L390.485,339.12C390.013,338.643 389.47,338.131 388.876,337.707C388.18,338.236 386.956,339.188 385.734,340.236C375.66,348.878 350.884,372.318 339.95,383.145C337.876,385.199 336.31,386.782 335.466,387.703ZM335.157,387.258C335.114,386.519 334.696,386.077 334.172,385.801C334.727,386.093 335.094,386.642 335.156,387.257L335.157,387.258Z"/>
        </g>
        <g transform="matrix(1,0,0,1,-7.87025,1.44865)">
            <path d="M333.303,387.45C332.511,387.033 387.412,334.799 388.883,335.536C390.531,336.361 391.958,338.013 392.826,338.85C393.243,339.252 350.017,398.472 347.157,400.463C346.435,400.966 333.303,389.98 333.303,387.45Z" style="fill:rgb(145,0,72);"/>
            <path d="M332.313,387.627L332.303,387.56C332.286,387.429 332.276,387.18 332.452,386.87C332.577,386.65 333.072,386.06 333.903,385.186C341.415,377.287 378.37,342.211 386.653,335.759C387.524,335.08 388.145,334.696 388.432,334.599C388.847,334.459 389.15,334.551 389.331,334.642C391.075,335.515 392.602,337.245 393.52,338.13C393.67,338.274 393.948,338.594 393.787,339.154C393.741,339.317 393.329,340.039 392.554,341.181C387.169,349.112 363.497,381.543 352.924,395.116C350.182,398.636 348.263,400.912 347.729,401.284C347.538,401.416 347.23,401.545 346.789,401.444C346.464,401.37 345.766,401.001 344.862,400.362C342.206,398.486 337.223,394.218 334.472,391.121C333.583,390.121 332.921,389.226 332.597,388.555C332.429,388.206 332.34,387.892 332.313,387.627ZM388.829,336.647C388.729,336.711 388.61,336.79 388.496,336.873C387.592,337.526 386.104,338.763 384.188,340.43C371.843,351.17 342.006,379.567 335.352,386.565C334.933,387.005 334.572,387.415 334.369,387.651C334.407,387.724 334.458,387.804 334.51,387.896C334.814,388.423 335.326,389.071 335.967,389.793C338.628,392.788 343.448,396.915 346.016,398.729C346.333,398.953 346.69,399.171 346.939,399.318C347.686,398.542 349.235,396.598 351.346,393.887C361.898,380.34 385.524,347.973 390.899,340.057C391.164,339.667 391.404,339.296 391.583,339.015C390.861,338.273 389.909,337.291 388.829,336.647ZM334.237,387.093C334.154,386.85 333.988,386.681 333.769,386.566C333.988,386.681 334.152,386.87 334.237,387.093Z"/>
        </g>
        <g transform="matrix(0.636247,0,0,0.594548,80.3335,133.084)">
            <path d="M203.024,212.877C202.85,213.381 202.883,215.267 202.883,215.674C202.883,216.425 202.066,366.256 203.403,368.928C203.492,369.107 209.779,368.953 209.766,368.648C209.215,355.412 210.557,213.509 209.688,212.64C209.506,212.457 203.24,212.446 203.024,212.877Z" style="fill:rgb(145,0,72);"/>
            <path d="M201.639,212.083C201.605,212.151 201.575,212.221 201.55,212.294C201.339,212.904 201.311,215.181 201.311,215.674C201.311,216.35 200.65,337.828 201.493,364.066C201.571,366.502 201.668,368.152 201.773,368.857C201.838,369.299 201.947,369.582 202.017,369.722C202.099,369.886 202.435,370.519 203.352,370.635C204.119,370.732 207.752,370.665 209.29,370.483C209.789,370.425 210.145,370.326 210.307,370.254C210.643,370.107 210.842,369.902 210.962,369.749C211.262,369.368 211.352,368.962 211.336,368.574C210.84,356.664 211.879,240.564 211.458,216.83C211.412,214.248 211.322,212.672 211.241,212.313C211.124,211.795 210.884,211.534 210.761,211.411C210.659,211.308 210.345,211.018 209.741,210.932C208.912,210.814 205.255,210.795 203.603,210.998C202.973,211.076 202.527,211.234 202.327,211.35C201.956,211.566 201.756,211.848 201.639,212.083ZM208.236,214.289L204.489,214.374C204.472,214.916 204.454,215.51 204.454,215.674C204.454,216.275 203.932,312.272 204.407,352.014C204.495,359.402 204.61,364.817 204.777,367.257L208.15,367.135C207.769,348.947 208.722,239.827 208.315,216.894C208.298,215.915 208.265,214.986 208.236,214.289Z"/>
        </g>
        <g transform="matrix(-0.281436,0.743668,-0.719351,-0.272234,702.465,61.5402)">
            <path d="M333.303,387.45C332.511,387.033 387.412,334.799 388.883,335.536C390.531,336.361 391.958,338.013 392.826,338.85C393.243,339.252 350.017,398.472 347.157,400.463C346.435,400.966 333.303,389.98 333.303,387.45Z" style="fill:rgb(145,0,72);"/>
            <path d="M332.059,387.679L332.048,387.602C332.027,387.432 332.009,387.107 332.238,386.705C332.366,386.479 332.873,385.866 333.73,384.964C341.247,377.06 378.223,341.965 386.51,335.509C387.415,334.804 388.064,334.412 388.361,334.311C388.855,334.144 389.215,334.257 389.432,334.366C391.2,335.252 392.752,337.001 393.684,337.899C393.881,338.089 394.243,338.509 394.032,339.248C393.984,339.417 393.563,340.177 392.756,341.366C387.369,349.3 363.69,381.74 353.115,395.317C350.345,398.874 348.4,401.165 347.86,401.541C347.633,401.699 347.266,401.859 346.74,401.739C346.402,401.661 345.671,401.284 344.73,400.619C342.062,398.735 337.057,394.447 334.293,391.336C333.381,390.31 332.705,389.389 332.373,388.701C332.188,388.32 332.092,387.973 332.059,387.679ZM334.704,387.687C334.732,387.741 334.762,387.795 334.792,387.843C335.169,388.456 335.802,389.217 336.581,390.057C339.626,393.342 344.838,397.714 346.89,398.97C347.657,398.146 349.147,396.265 351.156,393.687C361.704,380.143 385.324,347.786 390.697,339.872C390.896,339.578 391.082,339.296 391.236,339.057C390.582,338.384 389.761,337.568 388.84,336.992C388.663,337.111 388.439,337.267 388.229,337.428C387.313,338.128 385.985,339.241 384.342,340.67C372.001,351.406 342.176,379.792 335.524,386.787C335.215,387.112 334.917,387.445 334.704,387.687ZM334.485,387.005C334.38,386.675 334.166,386.445 333.874,386.292C334.162,386.444 334.377,386.701 334.485,387.005ZM334.491,387.022L334.49,387.02L334.491,387.022Z"/>
        </g>
        <g transform="matrix(0.287051,0.711805,-0.69493,0.280246,410.316,-107.615)">
            <path d="M333.303,387.45C332.511,387.033 387.412,334.799 388.883,335.536C390.531,336.361 391.958,338.013 392.826,338.85C393.243,339.252 350.017,398.472 347.157,400.463C346.435,400.966 333.303,389.98 333.303,387.45Z" style="fill:rgb(145,0,72);"/>
            <path d="M332.014,387.681L332.002,387.605C331.981,387.432 331.963,387.102 332.196,386.693C332.325,386.465 332.833,385.85 333.694,384.944C341.211,377.039 378.19,341.941 386.479,335.485C387.39,334.775 388.044,334.381 388.344,334.279C388.857,334.106 389.231,334.224 389.456,334.337C391.229,335.225 392.785,336.978 393.719,337.878C393.92,338.071 394.292,338.5 394.076,339.255C394.028,339.425 393.607,340.187 392.796,341.381C387.409,349.315 363.73,381.756 353.154,395.334C350.379,398.896 348.43,401.19 347.89,401.567C347.654,401.731 347.273,401.897 346.728,401.772C346.387,401.694 345.649,401.315 344.699,400.644C342.03,398.759 337.021,394.468 334.256,391.355C333.341,390.326 332.663,389.402 332.33,388.712C332.144,388.327 332.047,387.978 332.014,387.681ZM334.755,387.691C334.78,387.739 334.807,387.787 334.833,387.829C335.21,388.441 335.841,389.2 336.617,390.037C339.643,393.302 344.809,397.64 346.882,398.921C347.653,398.087 349.131,396.219 351.117,393.67C361.665,380.127 385.284,347.77 390.657,339.857C390.851,339.571 391.032,339.295 391.183,339.059C390.541,338.399 389.739,337.604 388.841,337.036C388.67,337.152 388.459,337.3 388.26,337.452C387.345,338.152 386.017,339.264 384.375,340.692C372.036,351.428 342.212,379.812 335.561,386.807C335.258,387.125 334.966,387.45 334.755,387.691ZM334.531,387.004L334.535,387.017L334.531,387.004ZM334.529,386.997C334.421,386.658 334.199,386.422 333.899,386.264C334.197,386.42 334.419,386.685 334.529,386.997Z"/>
        </g>
        <g transform="matrix(-0.123505,0.588906,-0.588906,-0.123505,560.413,7.156)">
            <path d="M333.303,387.45C332.511,387.033 387.412,334.799 388.883,335.536C390.531,336.361 391.958,338.013 392.826,338.85C393.243,339.252 350.017,398.472 347.157,400.463C346.435,400.966 333.303,389.98 333.303,387.45Z" style="fill:rgb(145,0,72);"/>
            <path d="M331.659,387.727L331.646,387.641C331.62,387.433 331.597,387.036 331.877,386.543C332.011,386.307 332.532,385.667 333.423,384.73C340.945,376.82 377.952,341.697 386.246,335.236C387.208,334.487 387.904,334.079 388.22,333.972C388.87,333.753 389.343,333.907 389.628,334.05C391.435,334.955 393.027,336.736 393.98,337.653C394.225,337.89 394.687,338.415 394.424,339.336C394.373,339.513 393.945,340.31 393.101,341.553C387.713,349.489 364.026,381.941 353.446,395.523C350.637,399.129 348.654,401.446 348.107,401.827C347.81,402.034 347.33,402.247 346.641,402.089C346.279,402.006 345.488,401.615 344.48,400.903C341.795,399.006 336.758,394.692 333.977,391.561C333.037,390.503 332.343,389.552 332.001,388.843C331.801,388.428 331.696,388.05 331.659,387.727ZM335.179,387.718C335.201,387.756 335.224,387.793 335.247,387.827C335.626,388.398 336.201,389.081 336.891,389.826C339.779,392.941 344.627,397.046 346.821,398.484C347.614,397.588 348.998,395.825 350.824,393.481C361.369,379.942 384.98,347.596 390.351,339.686C390.491,339.48 390.624,339.28 390.743,339.098C390.207,338.55 389.573,337.94 388.872,337.459C388.19,337.974 386.895,338.974 385.603,340.082C375.526,348.726 350.744,372.172 339.807,383.001C337.615,385.173 335.989,386.82 335.179,387.718ZM334.954,387.27C334.914,386.617 334.542,386.225 334.078,385.98C334.57,386.239 334.896,386.725 334.954,387.27Z"/>
        </g>
        <g transform="matrix(-0.599615,0.424065,-0.42463,-0.600415,749.423,272.786)">
            <path d="M333.303,387.45C332.511,387.033 387.412,334.799 388.883,335.536C390.531,336.361 391.958,338.013 392.826,338.85C393.243,339.252 350.017,398.472 347.157,400.463C346.435,400.966 333.303,389.98 333.303,387.45Z" style="fill:rgb(145,0,72);"/>
            <path d="M331.955,387.678L331.944,387.604C331.922,387.431 331.905,387.102 332.138,386.693C332.267,386.464 332.776,385.847 333.64,384.939C341.158,377.033 378.141,341.932 386.43,335.475C387.35,334.758 388.013,334.361 388.316,334.259C388.859,334.075 389.256,334.201 389.494,334.32C391.272,335.211 392.835,336.969 393.772,337.872C393.973,338.065 394.351,338.497 394.135,339.253C394.087,339.423 393.665,340.186 392.853,341.382C387.466,349.316 363.786,381.759 353.21,395.337C350.432,398.904 348.478,401.201 347.936,401.578C347.687,401.752 347.285,401.927 346.708,401.795C346.363,401.716 345.614,401.335 344.653,400.656C341.981,398.769 336.968,394.475 334.201,391.359C333.284,390.328 332.605,389.402 332.271,388.711C332.085,388.325 331.988,387.976 331.955,387.678ZM334.813,387.691C334.839,387.739 334.865,387.787 334.891,387.828C335.267,388.439 335.897,389.197 336.672,390.032C339.668,393.265 344.764,397.552 346.868,398.873C347.647,398.023 349.106,396.176 351.06,393.667C361.609,380.125 385.227,347.769 390.599,339.856C390.793,339.57 390.974,339.295 391.125,339.06C390.494,338.411 389.71,337.634 388.833,337.071C387.988,337.655 386.458,338.933 384.426,340.701C372.087,351.435 342.266,379.818 335.615,386.812C335.314,387.128 335.024,387.452 334.813,387.691ZM334.593,387.017C334.485,386.659 334.251,386.412 333.938,386.248C334.252,386.413 334.484,386.691 334.593,387.017Z"/>
        </g>
        <g transform="matrix(-0.344065,0.29575,-0.295602,-0.343893,612.407,174.234)">
            <path d="M333.303,387.45C332.511,387.033 387.412,334.799 388.883,335.536C390.531,336.361 391.958,338.013 392.826,338.85C393.243,339.252 350.017,398.472 347.157,400.463C346.435,400.966 333.303,389.98 333.303,387.45Z" style="fill:rgb(145,0,72);"/>
            <path d="M331.244,388.386C331.075,388.014 331.015,387.548 331.141,386.958C331.18,386.777 331.272,386.446 331.553,386.04C331.744,385.765 332.245,385.182 333.03,384.356C340.561,376.436 377.61,341.275 385.913,334.807C386.949,334.001 387.706,333.573 388.047,333.458C388.888,333.173 389.502,333.379 389.87,333.564C391.73,334.496 393.376,336.318 394.355,337.262C394.68,337.574 395.293,338.268 394.945,339.486C394.891,339.674 394.449,340.534 393.549,341.858C388.158,349.799 364.459,382.268 353.874,395.857C351.01,399.534 348.974,401.884 348.416,402.273C348.031,402.541 347.412,402.824 346.52,402.619C346.127,402.529 345.261,402.12 344.168,401.347C341.459,399.434 336.378,395.081 333.572,391.922C332.59,390.817 331.871,389.82 331.513,389.08C331.396,388.837 331.308,388.604 331.244,388.386ZM335.92,387.76C336.275,388.246 336.789,388.918 337.289,389.457C339.967,392.347 344.352,396.105 346.668,397.726C347.535,396.702 348.969,394.979 350.397,393.146C360.936,379.615 384.535,347.286 389.903,339.38L390.049,339.161C389.693,338.809 389.3,338.449 388.878,338.13C388.176,338.67 387.066,339.542 385.955,340.495C375.884,349.133 351.118,372.565 340.189,383.388C338.439,385.121 336.816,386.814 335.92,387.76ZM335.491,387.158C335.419,386.323 334.934,385.817 334.33,385.499C334.965,385.833 335.392,386.452 335.487,387.152L335.491,387.158Z"/>
        </g>
        <g transform="matrix(0.562275,0.50827,-0.532152,0.588695,300.683,-96.0865)">
            <path d="M221.728,237.611C221.76,237.121 231.291,237.508 232.505,234.418C232.621,234.123 232.628,232.047 231.19,227.209C228.544,218.309 221.047,200.952 220.222,197.791C219.73,195.908 217.002,187.71 216.796,186.573C215.808,181.114 212.953,178.138 216.581,172.696C219.329,168.574 234.559,163.754 242.877,161.627C249.048,160.05 259.63,156.785 263.113,156.205C264.875,155.911 271.687,154.477 272.343,154.678C275.017,155.499 273.375,140.519 273.377,141.55C273.377,141.957 221.804,161.789 217.587,163.122C211.465,165.056 209.297,169.933 208.992,170.747C207.933,173.58 208.319,178.124 208.334,181.067C208.357,185.745 210.234,190.748 210.704,195.357C210.936,197.626 215.502,212.077 216.384,217.373C216.951,220.77 221.097,235.719 221.728,237.611Z" style="fill:rgb(145,0,72);"/>
            <path d="M222.369,238.712C222.224,238.789 222.063,238.841 221.89,238.861C221.26,238.936 220.664,238.571 220.471,237.993C219.834,236.084 215.653,220.999 215.081,217.571C214.196,212.257 209.623,197.756 209.391,195.479C208.917,190.833 207.038,185.789 207.015,181.073C206.999,178.006 206.646,173.275 207.75,170.323C208.084,169.429 210.447,164.051 217.173,161.925C220.96,160.728 263.023,144.578 271.398,141.063C271.837,140.879 272.237,140.699 272.456,140.599C272.771,140.297 273.129,140.219 273.473,140.242C273.734,140.259 274.046,140.341 274.333,140.625C274.368,140.66 274.642,140.931 274.726,141.517C274.928,142.914 275.646,151.271 274.656,154.163C274.141,155.668 273.144,156.168 272.099,155.921L272.049,155.922C270.478,156.009 264.899,157.186 263.34,157.446C259.877,158.023 249.354,161.276 243.218,162.845C237.471,164.314 228.379,167.079 222.512,170.006C220.224,171.147 218.434,172.262 217.694,173.373C215.78,176.244 215.922,178.334 216.527,180.584C216.993,182.319 217.694,184.137 218.096,186.358C218.301,187.486 221.014,195.618 221.502,197.486C222.326,200.643 229.816,217.977 232.459,226.865C233.51,230.401 233.811,232.526 233.862,233.587C233.897,234.307 233.798,234.714 233.74,234.861C233.297,235.99 232.114,236.871 230.504,237.43C227.88,238.341 223.075,238.669 222.369,238.712ZM272.283,143.444C263.476,147.12 221.779,163.124 218.002,164.318C212.484,166.062 210.509,170.438 210.235,171.171C209.219,173.886 209.639,178.241 209.653,181.061C209.677,185.702 211.551,190.662 212.017,195.235C212.248,197.496 216.808,211.896 217.687,217.175C218.185,220.16 221.475,232.147 222.65,236.13C224.106,235.986 226.838,235.85 229,235.249C229.623,235.075 230.194,234.866 230.646,234.59C230.892,234.44 231.104,234.281 231.222,234.075C231.2,233.689 231.024,231.265 229.921,227.553C227.271,218.642 219.768,201.261 218.941,198.095C218.446,196.198 215.704,187.933 215.496,186.788C215.108,184.641 214.421,182.887 213.971,181.211C213.2,178.343 213.028,175.679 215.468,172.019C216.377,170.656 218.482,169.172 221.29,167.772C227.311,164.769 236.638,161.918 242.536,160.41C248.741,158.824 259.384,155.547 262.886,154.963C264.304,154.727 268.975,153.758 271.125,153.482C271.508,153.433 271.84,153.415 272.107,153.417C272.192,153.154 272.321,152.721 272.375,152.342C272.735,149.85 272.492,145.768 272.283,143.444ZM222.995,237.963C222.989,237.98 222.984,237.997 222.978,238.015L222.963,238.053C222.98,238.013 222.993,237.972 223.004,237.931L222.995,237.963ZM223.022,237.856L223.014,237.894L223.02,237.869L223.022,237.856ZM223.037,237.764L223.034,237.791L223.036,237.778L223.037,237.764Z"/>
        </g>
        <g transform="matrix(0.337074,0.829609,-0.731097,0.297048,395.746,-160.521)">
            <path d="M318.342,332.853C320.199,329.289 325.004,304.622 327.026,298.555C327.89,295.963 329.474,288.945 329.406,288.876C329.233,288.703 327.179,292.747 327.026,293.002C324.376,297.419 303.995,336.989 306.082,338.381C310.555,341.363 337.827,345.142 346.066,346.79C349.695,347.516 359.864,348.7 360.188,348.377C360.362,348.202 357.57,346.77 357.014,346.631C353.595,345.776 320.667,332.853 318.342,332.853Z" style="fill:rgb(145,0,72);"/>
            <path d="M319.922,331.93C320.772,332.17 321.907,332.53 323.251,332.991C332.957,336.319 354.525,344.711 357.255,345.394C357.642,345.491 359.02,346.139 359.933,346.666C360.423,346.949 360.793,347.226 360.93,347.376C361.269,347.746 361.313,348.135 361.312,348.363C361.311,348.738 361.19,349.063 360.926,349.327C360.825,349.429 360.628,349.593 360.287,349.658C360.078,349.698 359.585,349.71 358.888,349.671C355.972,349.509 348.806,348.625 345.873,348.038C340.101,346.884 324.997,344.684 314.92,342.444C310.431,341.447 306.912,340.403 305.517,339.473C305.182,339.25 304.882,338.847 304.825,338.152C304.761,337.368 305.222,335.532 306.181,333.043C310.436,322.004 323.972,295.841 326.103,292.289C326.247,292.049 328.024,288.61 328.506,288.054C329.207,287.246 329.907,287.688 330.145,287.926C330.19,287.971 330.634,288.446 330.474,289.344C330.255,290.58 328.865,296.622 328.071,299.003C326.661,303.233 323.898,316.54 321.73,325.36C321.061,328.084 320.435,330.395 319.922,331.93ZM326.517,296.293C322.37,303.989 311.868,324.615 308.227,334.059C307.744,335.312 307.385,336.359 307.189,337.138C307.155,337.273 307.126,337.421 307.104,337.552C308.613,338.329 311.628,339.13 315.349,339.957C325.413,342.193 340.496,344.389 346.26,345.542C347.724,345.835 350.27,346.205 352.786,346.517C345.397,343.848 330.295,338.054 322.605,335.417C320.34,334.641 318.775,334.121 318.342,334.121C317.941,334.121 317.571,333.877 317.372,333.481C317.174,333.086 317.177,332.6 317.381,332.209C317.916,331.182 318.683,328.324 319.579,324.679C321.765,315.786 324.56,302.371 325.982,298.107C326.141,297.63 326.324,297.001 326.517,296.293Z"/>
        </g>
        <g transform="matrix(-0.16604,0.879943,-0.775455,-0.146323,650.587,-75.8785)">
            <path d="M318.342,332.853C320.199,329.289 325.004,304.622 327.026,298.555C327.89,295.963 329.474,288.945 329.406,288.876C329.233,288.703 327.179,292.747 327.026,293.002C324.376,297.419 303.995,336.989 306.082,338.381C310.555,341.363 337.827,345.142 346.066,346.79C349.695,347.516 359.864,348.7 360.188,348.377C360.362,348.202 357.57,346.77 357.014,346.631C353.595,345.776 320.667,332.853 318.342,332.853Z" style="fill:rgb(145,0,72);"/>
            <path d="M319.922,331.93C320.772,332.17 321.907,332.53 323.251,332.991C332.957,336.319 354.525,344.711 357.255,345.394C357.642,345.491 359.02,346.139 359.933,346.666C360.423,346.949 360.793,347.226 360.93,347.376C361.269,347.746 361.313,348.135 361.312,348.363C361.311,348.738 361.19,349.063 360.926,349.327C360.825,349.429 360.628,349.593 360.287,349.658C360.078,349.698 359.585,349.71 358.888,349.671C355.972,349.509 348.806,348.625 345.873,348.038C340.101,346.884 324.997,344.684 314.92,342.444C310.431,341.447 306.912,340.403 305.517,339.473C305.182,339.25 304.882,338.847 304.825,338.152C304.761,337.368 305.222,335.532 306.181,333.043C310.436,322.004 323.972,295.841 326.103,292.289C326.247,292.049 328.024,288.61 328.506,288.054C329.207,287.246 329.907,287.688 330.145,287.926C330.19,287.971 330.634,288.446 330.474,289.344C330.255,290.58 328.865,296.622 328.071,299.003C326.661,303.233 323.898,316.54 321.73,325.36C321.061,328.084 320.435,330.395 319.922,331.93ZM307.104,337.552C308.613,338.329 311.628,339.13 315.349,339.957C325.413,342.193 340.496,344.389 346.26,345.542C347.724,345.835 350.27,346.205 352.786,346.517C345.397,343.848 330.295,338.054 322.605,335.417C320.34,334.641 318.775,334.121 318.342,334.121C317.941,334.121 317.571,333.877 317.372,333.481C317.174,333.086 317.177,332.6 317.381,332.209C317.916,331.182 318.683,328.324 319.579,324.679C321.765,315.786 324.56,302.371 325.982,298.107C326.141,297.63 326.324,297.001 326.517,296.293C322.37,303.989 311.868,324.615 308.227,334.059C307.744,335.312 307.385,336.359 307.189,337.138C307.155,337.273 307.126,337.421 307.104,337.552Z"/>
        </g>
        <g transform="matrix(1,0,0,1,-8.0637,12.0377)">
            <path d="M203.024,212.877C202.85,213.381 202.883,215.267 202.883,215.674C202.883,216.425 202.066,366.256 203.403,368.928C203.492,369.107 209.779,368.953 209.766,368.648C209.215,355.412 210.557,213.509 209.688,212.64C209.506,212.457 203.24,212.446 203.024,212.877Z" style="fill:rgb(145,0,72);"/>
            <path d="M202.13,212.429C202.11,212.469 202.093,212.509 202.079,212.55C201.885,213.114 201.883,215.219 201.883,215.674C201.883,216.35 201.222,337.807 202.064,364.04C202.131,366.116 202.208,367.605 202.294,368.405C202.35,368.928 202.446,369.251 202.508,369.375C202.564,369.486 202.792,369.879 203.411,369.957C204.163,370.052 207.727,369.983 209.235,369.805C209.665,369.754 209.973,369.675 210.113,369.614C210.335,369.516 210.466,369.386 210.546,369.284C210.719,369.064 210.775,368.832 210.765,368.607C210.269,356.696 211.307,240.581 210.886,216.844C210.842,214.354 210.767,212.834 210.689,212.488C210.618,212.171 210.47,212.008 210.395,211.933C210.321,211.859 210.117,211.68 209.724,211.617C209.082,211.513 206.269,211.478 204.456,211.603C203.641,211.659 203.003,211.77 202.737,211.882C202.385,212.031 202.215,212.26 202.13,212.429ZM208.773,213.559C207.484,213.544 204.868,213.662 203.893,213.709C203.844,214.382 203.883,215.402 203.883,215.674C203.883,216.275 203.36,312.278 203.835,352.024C203.918,358.959 204.031,364.176 204.183,366.865C204.206,367.271 204.239,367.652 204.269,367.953L208.738,367.786C208.314,351.869 209.299,240.118 208.887,216.879C208.861,215.452 208.809,214.25 208.773,213.559Z"/>
        </g>
        <g transform="matrix(0.974586,0,0,0.748498,-3.08197,-124.292)">
            <path d="M203.024,212.877C202.85,213.381 202.883,215.267 202.883,215.674C202.883,216.425 202.066,366.256 203.403,368.928C203.492,369.107 209.779,368.953 209.766,368.648C209.215,355.412 210.557,213.509 209.688,212.64C209.506,212.457 203.24,212.446 203.024,212.877Z" style="fill:rgb(145,0,72);"/>
            <path d="M202.165,212.148C202.136,212.205 202.11,212.266 202.089,212.329C202.006,212.569 201.929,212.999 201.895,213.511C201.842,214.306 201.856,215.373 201.856,215.674C201.856,216.35 201.196,337.826 202.038,364.064C202.116,366.496 202.213,368.143 202.318,368.847C202.379,369.263 202.477,369.525 202.543,369.657C202.596,369.764 202.841,370.219 203.437,370.295C204.183,370.389 207.716,370.319 209.21,370.142C209.615,370.094 209.907,370.022 210.039,369.964C210.261,369.867 210.397,369.724 210.476,369.622C210.739,369.288 210.805,368.917 210.791,368.576C210.295,356.666 211.333,240.565 210.912,216.831C210.867,214.258 210.778,212.689 210.698,212.332C210.599,211.895 210.417,211.684 210.313,211.58C210.247,211.514 210.033,211.326 209.645,211.271C208.841,211.157 205.29,211.141 203.686,211.339C203.182,211.401 202.819,211.515 202.66,211.607C202.394,211.762 202.249,211.979 202.165,212.148ZM208.764,213.88C207.513,213.824 205.147,213.838 203.957,213.984C203.936,214.594 203.909,215.468 203.909,215.674C203.909,216.275 203.386,312.272 203.861,352.015C203.955,359.826 204.078,365.435 204.26,367.654C205.399,367.649 207.583,367.53 208.703,367.464C208.303,350.304 209.27,239.968 208.861,216.893C208.84,215.708 208.796,214.596 208.764,213.88Z"/>
        </g>
        <g transform="matrix(1,0,0,1,-6.2544,14.263)">
            <path d="M110.458,237.142C110.458,237.14 182.518,104.824 184.686,101.212C185.669,99.574 187.702,96.34 187.702,96.34C187.702,96.34 126.738,245.746 126.232,245.492C123.851,244.302 110.453,237.017 110.458,237.142Z" style="fill:rgb(255,184,28);"/>
            <path d="M109.61,236.609L111.6,232.954C123.296,211.479 181.877,103.949 183.829,100.697C184.815,99.054 186.855,95.808 186.855,95.808C187.131,95.369 187.697,95.214 188.158,95.451C188.62,95.688 188.823,96.238 188.627,96.718C188.627,96.718 139.242,217.749 128.996,241.77C127.935,244.257 127.27,245.735 127.111,245.987C126.636,246.743 125.926,246.457 125.784,246.387C123.641,245.315 112.573,239.307 110.385,238.206C110.3,238.164 110.206,238.119 110.157,238.095C109.765,237.972 109.477,237.613 109.459,237.183C109.457,237.131 109.458,237.081 109.463,237.032C109.464,237.02 109.466,237.003 109.469,236.982C109.49,236.843 109.538,236.72 109.61,236.609ZM181.269,109.447C167.238,134.999 123.31,215.635 113.356,233.911L111.836,236.703C114.578,238.128 122.647,242.497 125.777,244.133C126.09,243.438 126.583,242.329 127.156,240.985C135.291,221.914 168.102,141.681 181.269,109.447ZM111.07,237.932C110.949,238.026 110.805,238.093 110.649,238.123C110.834,238.09 110.97,238.013 111.07,237.932ZM111.104,237.904L111.096,237.911L111.104,237.904ZM111.338,237.617L111.338,237.617C111.301,237.685 111.257,237.748 111.206,237.805C111.278,237.726 111.336,237.639 111.378,237.543L111.338,237.617Z"/>
        </g>
        <g transform="matrix(-0.442799,-0.896621,0.896621,-0.442799,241.261,299.88)">
            <path d="M110.458,237.142C110.483,236.852 172.799,121.551 178.191,112.114C180.271,108.475 182.518,104.824 184.686,101.212C185.669,99.574 187.702,96.34 187.702,96.34C187.702,96.34 126.738,245.746 126.232,245.492C123.243,243.998 110.458,237.414 110.458,237.142" style="fill:rgb(255,184,28);"/>
            <path d="M109.558,236.706L109.58,236.658C109.694,236.425 110.308,235.269 111.334,233.353C121.498,214.374 172.469,120.113 177.323,111.618C179.406,107.973 181.657,104.316 183.829,100.697C184.815,99.054 186.855,95.808 186.855,95.808C187.131,95.369 187.697,95.214 188.158,95.451C188.62,95.688 188.823,96.238 188.627,96.718C188.627,96.718 139.242,217.749 128.996,241.77C127.935,244.257 127.27,245.735 127.111,245.987C126.636,246.743 125.926,246.457 125.784,246.387C123.081,245.035 112.407,239.54 110.299,238.255C110.123,238.148 109.985,238.046 109.88,237.957C109.794,237.896 109.719,237.822 109.656,237.738C109.639,237.718 109.627,237.702 109.619,237.689C109.506,237.512 109.469,237.348 109.461,237.214L109.459,237.198L109.459,237.179L109.458,237.157L109.458,237.142L109.458,237.126L109.459,237.106L109.459,237.098L109.459,237.09L109.461,237.07L109.462,237.054L109.463,237.038C109.465,237.016 109.469,236.975 109.483,236.919C109.5,236.845 109.525,236.773 109.558,236.706ZM125.773,244.141C126.086,243.447 126.581,242.334 127.156,240.985C135.461,221.515 169.484,138.3 182.066,107.497C181.043,109.201 180.033,110.906 179.059,112.61C174.207,121.101 123.257,215.326 113.097,234.297C112.54,235.336 112.073,236.218 111.766,236.798C114.315,238.26 122.384,242.424 125.773,244.141Z"/>
        </g>
        <g transform="matrix(-1.35264,-0.00912586,0.00912586,-1.35264,327.564,393.989)">
            <path d="M110.458,237.142C110.484,236.845 172.81,121.53 178.191,112.114C180.271,108.475 182.518,104.824 184.686,101.212C185.669,99.574 187.702,96.34 187.702,96.34C187.702,96.34 126.738,245.746 126.232,245.492C123.453,244.103 110.458,237.495 110.458,237.142" style="fill:rgb(0,163,173);"/>
            <path d="M109.784,236.837C109.793,236.817 109.802,236.796 109.813,236.773C109.928,236.54 110.54,235.386 111.564,233.474C121.73,214.489 172.706,120.223 177.549,111.747C179.631,108.103 181.882,104.448 184.052,100.831C185.037,99.189 187.076,95.947 187.076,95.947C187.28,95.622 187.698,95.508 188.039,95.683C188.38,95.858 188.531,96.265 188.386,96.62C188.386,96.62 139.002,217.647 128.756,241.668C127.704,244.132 127.048,245.598 126.891,245.849C126.536,246.413 126.006,246.206 125.901,246.153C123.39,244.898 112.57,239.396 110.431,238.049C110.144,237.869 109.973,237.722 109.911,237.65C109.754,237.466 109.723,237.292 109.72,237.173L109.719,237.153L109.719,237.142L109.719,237.13L109.719,237.115L109.72,237.104L109.721,237.089L109.722,237.077L109.725,237.046L109.729,237.018L109.73,237.011C109.741,236.95 109.76,236.892 109.784,236.837ZM125.897,244.497C126.202,243.826 126.748,242.605 127.396,241.087C136,220.915 172.21,132.322 183.582,104.476C181.973,107.138 180.358,109.812 178.833,112.481C173.991,120.954 123.03,215.192 112.867,234.172C112.23,235.361 111.71,236.345 111.413,236.908C111.629,237.04 111.906,237.207 112.194,237.368C115.324,239.125 122.957,243.016 125.897,244.497Z"/>
        </g>
        <g transform="matrix(0.494269,1.25914,-1.25914,0.494269,468.205,202.889)">
            <path d="M114.401,239.925C113.225,239.141 172.314,122.398 178.191,112.114C180.271,108.475 182.518,104.824 184.686,101.212C185.669,99.574 187.702,96.34 187.702,96.34C187.702,96.34 126.738,245.746 126.232,245.492C123.511,244.132 115.231,240.478 114.401,239.925Z" style="fill:rgb(0,163,173);"/>
            <path d="M113.991,240.54C114.827,241.097 123.162,244.784 125.901,246.153C126.006,246.206 126.536,246.413 126.891,245.849C127.048,245.598 127.704,244.132 128.756,241.668C139.002,217.647 188.386,96.62 188.386,96.62C188.531,96.265 188.38,95.858 188.039,95.683C187.698,95.508 187.28,95.622 187.076,95.947C187.076,95.947 185.037,99.189 184.052,100.831C181.882,104.448 179.631,108.103 177.549,111.747C172.258,121.008 123.84,216.544 115.068,236.131C114.442,237.53 114.015,238.549 113.814,239.132C113.69,239.492 113.646,239.741 113.645,239.863C113.643,240.25 113.844,240.442 113.991,240.54ZM183.582,104.476C181.973,107.138 180.358,109.812 178.833,112.481C173.547,121.731 125.181,217.169 116.418,236.736C115.888,237.919 115.459,239.016 115.254,239.554C117.038,240.467 123.046,243.134 125.894,244.504C126.197,243.835 126.746,242.611 127.396,241.087C136,220.915 172.21,132.322 183.582,104.476Z"/>
        </g>
        <g transform="matrix(0.786053,-1.10084,1.10084,0.786053,-179.012,412.361)">
            <path d="M110.458,237.142C110.46,237.117 173.291,120.689 178.191,112.114C180.271,108.475 182.518,104.824 184.686,101.212C185.669,99.574 187.702,96.34 187.702,96.34C187.702,96.34 126.738,245.746 126.232,245.492C124.01,244.382 110.458,237.71 110.458,237.142" style="fill:rgb(0,163,173);"/>
            <path d="M109.813,236.781L109.825,236.757C109.937,236.548 110.549,235.412 111.572,233.516C121.798,214.557 173.138,119.466 177.549,111.747C179.631,108.103 181.882,104.448 184.052,100.831C185.037,99.189 187.076,95.947 187.076,95.947C187.28,95.622 187.698,95.508 188.039,95.683C188.38,95.858 188.531,96.265 188.386,96.62C188.386,96.62 139.002,217.647 128.756,241.668C127.704,244.132 127.048,245.598 126.891,245.849C126.536,246.413 126.006,246.206 125.901,246.153C124.119,245.263 115.067,240.803 111.517,238.763C110.725,238.308 110.187,237.948 110,237.763C109.784,237.548 109.73,237.334 109.721,237.195C109.719,237.178 109.719,237.162 109.719,237.145L109.719,237.142L109.719,237.13L109.719,237.115L109.72,237.104L109.721,237.089L109.722,237.077C109.722,237.076 109.721,237.042 109.736,236.981C109.752,236.91 109.778,236.842 109.813,236.781ZM183.582,104.476C181.973,107.138 180.358,109.812 178.833,112.481C174.423,120.197 123.096,215.264 112.873,234.217L111.399,236.953C111.625,237.101 111.934,237.297 112.254,237.481C115.459,239.322 123.174,243.147 125.896,244.5C126.2,243.829 126.748,242.607 127.396,241.087C136,220.915 172.21,132.322 183.582,104.476Z"/>
        </g>
        <g transform="matrix(0.638446,1.19252,-1.19252,0.638446,436.776,-228.917)">
            <path d="M110.458,237.142C110.497,236.692 173.065,121.085 178.191,112.114C180.271,108.475 182.518,104.824 184.686,101.212C185.669,99.574 187.702,96.34 187.702,96.34C187.702,96.34 126.738,245.746 126.232,245.492C125.349,245.051 110.458,237.513 110.458,237.142Z" style="fill:rgb(0,163,173);"/>
            <path d="M109.722,237.077C109.72,237.099 109.719,237.12 109.719,237.142C109.719,237.246 109.738,237.378 109.821,237.523C109.867,237.602 110.075,237.828 110.487,238.083C112.917,239.585 125.104,245.755 125.901,246.153C126.006,246.206 126.536,246.413 126.891,245.849C127.048,245.598 127.704,244.132 128.756,241.668C139.002,217.647 188.386,96.62 188.386,96.62C188.531,96.265 188.38,95.858 188.039,95.683C187.698,95.508 187.28,95.622 187.076,95.947C187.076,95.947 185.037,99.189 184.052,100.831C181.882,104.448 179.631,108.103 177.549,111.747C172.935,119.822 121.786,214.286 111.574,233.426C110.542,235.359 109.925,236.532 109.808,236.78C109.732,236.943 109.724,237.05 109.722,237.077ZM183.582,104.476C181.973,107.138 180.358,109.812 178.833,112.481C174.22,120.553 123.087,214.988 112.878,234.122C112.233,235.33 111.707,236.334 111.41,236.903C111.667,237.059 112.014,237.265 112.373,237.464C115.722,239.325 123.514,243.29 125.898,244.496C126.202,243.825 126.749,242.604 127.396,241.087C136,220.915 172.21,132.322 183.582,104.476Z"/>
        </g>
        <g transform="matrix(-0.424152,-0.905591,0.905591,-0.424152,233.723,661.698)">
            <path d="M110.458,237.142C110.483,236.861 172.783,121.577 178.191,112.114C180.271,108.475 182.518,104.824 184.686,101.212C185.669,99.574 187.702,96.34 187.702,96.34C187.702,96.34 126.738,245.746 126.232,245.492C125.134,244.943 110.458,237.264 110.458,237.142Z" style="fill:rgb(255,184,28);"/>
            <path d="M109.462,237.054C109.459,237.083 109.458,237.112 109.458,237.142C109.458,237.275 109.462,237.581 109.779,237.877C109.818,237.914 110.021,238.061 110.381,238.263C112.775,239.605 124.794,245.891 125.784,246.387C125.926,246.457 126.636,246.743 127.111,245.987C127.27,245.735 127.935,244.257 128.996,241.77C139.242,217.749 188.627,96.718 188.627,96.718C188.823,96.238 188.62,95.688 188.158,95.451C187.697,95.214 187.131,95.369 186.855,95.808C186.855,95.808 184.815,99.054 183.829,100.697C181.657,104.316 179.406,107.973 177.323,111.618C172.455,120.137 121.494,214.386 111.333,233.356C110.308,235.27 109.694,236.425 109.58,236.658C109.469,236.884 109.464,237.03 109.462,237.054ZM125.777,244.134C126.09,243.439 126.583,242.329 127.156,240.985C135.461,221.515 169.484,138.3 182.066,107.497C181.043,109.201 180.033,110.906 179.059,112.61C174.193,121.126 123.253,215.338 113.096,234.3C112.553,235.313 112.096,236.176 111.789,236.756C114.485,238.232 122.909,242.646 125.777,244.134Z"/>
        </g>
        <g transform="matrix(-0.602815,0.797881,-0.797881,-0.602815,384.398,343.75)">
            <path d="M110.458,237.142C110.483,236.854 172.794,121.559 178.191,112.114C180.271,108.475 182.518,104.824 184.686,101.212C185.669,99.574 187.702,96.34 187.702,96.34C187.702,96.34 126.738,245.746 126.232,245.492C123.741,244.247 110.458,237.606 110.458,237.142" style="fill:rgb(255,184,28);"/>
            <path d="M109.558,236.706L109.58,236.658C109.694,236.425 110.308,235.269 111.333,233.354C121.497,214.378 172.465,120.12 177.323,111.618C179.406,107.973 181.657,104.316 183.829,100.697C184.815,99.054 186.855,95.808 186.855,95.808C187.131,95.369 187.697,95.214 188.158,95.451C188.62,95.688 188.823,96.238 188.627,96.718C188.627,96.718 139.242,217.749 128.996,241.77C127.935,244.257 127.27,245.735 127.111,245.987C126.636,246.743 125.926,246.457 125.784,246.387C123.528,245.259 112.473,239.726 110.284,238.291C109.941,238.066 109.743,237.871 109.669,237.771C109.506,237.549 109.465,237.342 109.459,237.186L109.458,237.157L109.458,237.147L109.458,237.142L109.458,237.126L109.459,237.106L109.459,237.098L109.459,237.09L109.461,237.07L109.462,237.054L109.463,237.039C109.465,237.016 109.469,236.975 109.483,236.919C109.5,236.844 109.525,236.773 109.558,236.706ZM111.742,236.844C114.254,238.36 122.544,242.528 125.772,244.144C126.085,243.45 126.58,242.336 127.156,240.985C135.461,221.515 169.484,138.3 182.066,107.497C181.043,109.201 180.033,110.906 179.059,112.61C174.203,121.109 123.256,215.33 113.097,234.298C112.525,235.365 112.048,236.265 111.742,236.844Z"/>
        </g>
        <g transform="matrix(-1,0,0,1,850.031,-2.22648)">
            <path d="M390.864,203.111C390.755,201.2 393.572,190.555 395.097,189.792C396.167,189.257 419.943,221.48 419.281,222.142C418.001,223.421 412.138,227.247 411.586,226.696C410.064,225.173 395.866,193.938 395.703,194.356C395.37,195.209 391.518,202.729 390.864,203.111Z" style="fill:rgb(145,0,72);"/>
            <path d="M395.747,196.561C398.279,201.727 405.302,216.947 408.797,223.798C409.812,225.788 410.583,227.107 410.879,227.403C411.058,227.582 411.321,227.732 411.696,227.748C411.948,227.76 412.352,227.685 412.85,227.484C414.764,226.71 418.914,223.923 419.988,222.849C420.14,222.697 420.455,222.254 420.176,221.548C419.73,220.418 416.329,215.45 412.171,209.727C406.701,202.196 399.937,193.316 397.12,190.23C396.424,189.466 395.892,189.023 395.637,188.904C395.205,188.701 394.867,188.789 394.65,188.898C394.406,189.019 394.121,189.258 393.846,189.64C393.449,190.19 392.998,191.132 392.556,192.287C391.159,195.934 389.787,201.778 389.866,203.168C389.886,203.515 390.085,203.827 390.391,203.992C390.698,204.157 391.068,204.15 391.368,203.975C391.551,203.868 391.973,203.411 392.437,202.663C393.349,201.191 394.806,198.428 395.747,196.561ZM395.25,191.156C397.671,193.616 404.824,203.014 410.553,210.902C413.946,215.573 417.152,220.483 418.06,221.887C416.988,222.758 414.969,224.11 413.393,224.987C412.931,225.244 412.372,225.488 412.036,225.628C411.72,225.116 411.223,224.153 410.578,222.889C406.82,215.523 398.983,198.48 397.037,194.664C396.752,194.106 396.543,193.777 396.471,193.697C396.344,193.556 396.223,193.488 396.141,193.449C395.845,193.309 395.589,193.336 395.386,193.404C395.14,193.488 394.904,193.653 394.772,193.992C394.63,194.355 393.836,195.949 392.932,197.667C393.373,196.052 393.902,194.363 394.423,193.002C394.706,192.262 394.985,191.623 395.25,191.156Z"/>
        </g>
        <g transform="matrix(0.999993,-0.00366129,0.00366129,0.999993,-6.63207,-3.50847)">
            <path d="M451.327,265.284C449.427,264.761 447.709,265.181 446.344,266.058C445.083,266.868 444.551,268.268 444.336,269.714C444.126,271.595 445.082,273.327 446.597,274.642C447.788,275.676 449.479,276.235 451.327,276.363C453.674,276.47 455.772,275.574 457.189,274.259C458.483,273.058 459.167,271.435 459.194,269.714C459.187,267.988 458.483,266.376 457.212,265.145C455.809,263.786 453.7,262.866 451.327,262.902L451.327,265.284ZM451.327,268.562C451.838,268.57 452.308,268.711 452.703,268.925C453.051,269.113 453.385,269.353 453.382,269.714C453.39,270.083 453.083,270.355 452.732,270.556C452.325,270.79 451.859,271 451.327,271.028C450.622,271.076 449.95,271.017 449.432,270.71C448.974,270.44 448.453,270.212 448.397,269.714C448.318,269.203 448.339,268.697 448.648,268.263C448.834,268.002 448.941,267.71 449.19,267.478C449.79,266.919 450.43,266.432 451.327,266.181L451.327,268.562Z"/>
        </g>
        <g transform="matrix(1,-8.7584e-05,8.7584e-05,1,-45.3108,-5.0566)">
            <path d="M451.327,265.284C449.427,264.761 447.709,265.181 446.344,266.058C445.083,266.868 444.551,268.268 444.336,269.714C444.126,271.595 445.082,273.327 446.597,274.642C447.788,275.676 449.479,276.235 451.327,276.363C453.674,276.47 455.772,275.574 457.189,274.259C458.483,273.058 459.167,271.435 459.194,269.714C459.187,267.988 458.483,266.376 457.212,265.145C455.809,263.786 453.7,262.866 451.327,262.902L451.327,265.284ZM451.327,268.562C451.838,268.57 452.308,268.711 452.703,268.925C453.051,269.113 453.385,269.353 453.382,269.714C453.39,270.083 453.083,270.355 452.732,270.556C452.325,270.79 451.859,271 451.327,271.028C450.622,271.076 449.95,271.017 449.432,270.71C448.974,270.44 448.453,270.212 448.397,269.714C448.318,269.203 448.339,268.697 448.648,268.263C448.834,268.002 448.941,267.71 449.19,267.478C449.79,266.919 450.43,266.432 451.327,266.181L451.327,268.562Z"/>
        </g>
        <g transform="matrix(0.598225,-5.2395e-05,6.03666e-05,0.689242,156.865,94.0952)">
            <path d="M451.327,265.302C449.301,264.8 447.456,265.33 445.993,266.335C444.835,267.13 444.359,268.391 444.125,269.714C443.891,271.467 444.769,273.069 446.111,274.318C447.372,275.493 449.265,276.123 451.327,276.252C453.449,276.344 455.384,275.667 456.848,274.615C458.505,273.422 459.452,271.644 459.497,269.714C459.483,267.776 458.513,266.009 456.883,264.778C455.431,263.682 453.478,262.989 451.327,263.02L451.327,265.302ZM451.327,268.444C451.846,268.452 452.305,268.64 452.648,268.911C452.908,269.116 453.082,269.398 453.079,269.714C453.087,270.037 452.943,270.335 452.683,270.551C452.326,270.847 451.878,271.115 451.327,271.139C450.712,271.177 450.113,271.131 449.668,270.848C449.197,270.547 448.678,270.234 448.608,269.714C448.51,269.178 448.487,268.662 448.776,268.207C448.94,267.95 449.001,267.673 449.23,267.447C449.802,266.882 450.411,266.393 451.327,266.162L451.327,268.444Z"/>
        </g>
        <g transform="matrix(1.10576,0.00764135,-0.00597396,0.864479,-41.831,41.2018)">
            <path d="M436.684,288.723C436.742,288.543 436.842,288.383 436.979,288.268C437.299,287.953 437.574,288.048 437.671,288.065C437.987,288.122 438.592,288.597 438.171,289.664C438.079,289.897 437.673,290.551 436.964,291.409C436.291,292.224 435.331,293.249 434.085,294.217C433.142,294.95 432.027,295.608 430.794,296.184C430.218,296.444 429.474,296.659 428.72,296.816C427.457,297.079 426.168,297.18 425.672,297.186C424.856,297.182 423.795,296.998 422.668,296.684C421.281,296.297 419.786,295.727 418.545,295.182C416.029,294.039 414.296,292.722 413.536,292.051C413.279,291.825 413.113,291.659 413.04,291.575C412.658,291.131 412.639,290.693 412.635,290.59C412.614,290.062 412.759,289.679 413.019,289.416C413.179,289.255 413.447,289.005 413.886,289.109C413.944,289.123 414.1,289.146 414.311,289.312C414.368,289.354 414.42,289.402 414.468,289.454L414.456,289.472C414.431,289.514 414.492,289.552 414.572,289.598L414.564,289.571L414.489,289.476L414.468,289.454C414.507,289.414 414.54,289.494 414.564,289.571L414.565,289.572L414.588,289.606C414.635,289.634 414.688,289.663 414.733,289.699C415.435,290.25 417.028,291.314 419.311,292.187C420.48,292.651 421.89,293.119 423.192,293.444C424.123,293.677 424.994,293.84 425.665,293.832C426.099,293.835 427.228,293.744 428.338,293.55C428.94,293.445 429.538,293.321 430.002,293.135C431.27,292.654 432.386,292.015 433.348,291.395C434.78,290.474 435.861,289.588 436.44,288.985C436.525,288.897 436.614,288.8 436.684,288.723Z"/>
        </g>
    </g>
    <g transform="matrix(0.245746,-0.678708,0.678708,0.245746,33.6416,462.297)">
        <path d="M333.303,387.45C332.511,387.033 387.412,334.799 388.883,335.536C390.531,336.361 391.958,338.013 392.826,338.85C393.243,339.252 350.017,398.472 347.157,400.463C346.435,400.966 333.303,389.98 333.303,387.45Z" style="fill:rgb(145,0,72);"/>
        <path d="M331.932,387.682L331.92,387.607C331.898,387.431 331.88,387.096 332.117,386.679C332.248,386.45 332.758,385.831 333.623,384.921C341.141,377.015 378.127,341.912 386.416,335.455C387.34,334.735 388.005,334.337 388.309,334.234C388.86,334.048 389.262,334.176 389.504,334.297C391.285,335.189 392.85,336.948 393.788,337.852C393.993,338.05 394.378,338.49 394.158,339.26C394.109,339.431 393.687,340.197 392.872,341.397C387.485,349.331 363.805,381.775 353.228,395.353C350.447,398.923 348.491,401.223 347.949,401.6C347.696,401.776 347.288,401.954 346.703,401.82C346.356,401.74 345.604,401.358 344.64,400.677C341.967,398.789 336.952,394.494 334.184,391.377C333.265,390.343 332.585,389.416 332.25,388.723C332.063,388.334 331.965,387.982 331.932,387.682ZM334.616,387.01C334.507,386.644 334.268,386.393 333.949,386.225C334.269,386.393 334.505,386.677 334.616,387.01ZM391.094,339.063C390.47,338.421 389.697,337.658 388.833,337.102C387.987,337.688 386.462,338.962 384.441,340.721C372.103,351.455 342.282,379.836 335.631,386.83C335.337,387.14 335.052,387.457 334.843,387.695C334.865,387.737 334.888,387.778 334.91,387.814C335.286,388.424 335.915,389.18 336.689,390.014C339.676,393.238 344.753,397.511 346.865,398.841C347.645,397.987 349.098,396.146 351.042,393.651C361.59,380.109 385.208,347.754 390.58,339.841C390.769,339.562 390.946,339.294 391.094,339.063Z"/>
    </g>
    <g transform="matrix(-0.118568,0.523141,-0.523141,-0.118568,621.801,149.559)">
        <path d="M333.303,387.45C332.511,387.033 387.412,334.799 388.883,335.536C390.531,336.361 391.958,338.013 392.826,338.85C393.243,339.252 350.017,398.472 347.157,400.463C346.435,400.966 333.303,389.98 333.303,387.45Z" style="fill:rgb(145,0,72);"/>
        <path d="M331.549,388.214C331.414,387.904 331.369,387.516 331.474,387.03C331.507,386.873 331.589,386.587 331.833,386.235C332.018,385.966 332.509,385.398 333.276,384.591C340.802,376.677 377.824,341.54 386.122,335.077C387.111,334.306 387.83,333.891 388.155,333.781C388.877,333.537 389.402,333.711 389.718,333.869C391.545,334.784 393.158,336.58 394.12,337.508C394.395,337.772 394.913,338.36 394.618,339.392C394.567,339.573 394.133,340.393 393.269,341.666C387.879,349.604 364.187,382.063 353.606,395.648C350.777,399.28 348.774,401.609 348.222,401.993C347.892,402.223 347.36,402.462 346.595,402.286C346.222,402.201 345.403,401.803 344.363,401.068C341.67,399.165 336.616,394.836 333.826,391.695C332.87,390.62 332.167,389.652 331.819,388.931C331.697,388.678 331.609,388.438 331.549,388.214ZM335.466,387.703C335.826,388.211 336.442,389.044 337.04,389.689C339.857,392.728 344.548,396.716 346.788,398.22C347.586,397.302 348.921,395.595 350.664,393.356C361.207,379.821 384.814,347.481 390.184,339.572L390.485,339.12C390.013,338.643 389.47,338.131 388.876,337.707C388.18,338.236 386.956,339.188 385.734,340.236C375.66,348.878 350.884,372.318 339.95,383.145C337.876,385.199 336.31,386.782 335.466,387.703ZM335.157,387.258C335.114,386.519 334.696,386.077 334.172,385.801C334.727,386.093 335.094,386.642 335.156,387.257L335.157,387.258Z"/>
    </g>
    <g transform="matrix(0.385618,0.363339,-0.367853,0.390409,420.37,41.988)">
        <path d="M333.303,387.45C332.511,387.033 387.412,334.799 388.883,335.536C390.531,336.361 391.958,338.013 392.826,338.85C393.243,339.252 350.017,398.472 347.157,400.463C346.435,400.966 333.303,389.98 333.303,387.45Z" style="fill:rgb(145,0,72);"/>
        <path d="M331.524,388.202C331.391,387.895 331.347,387.513 331.45,387.035C331.484,386.879 331.565,386.594 331.807,386.244C331.993,385.975 332.484,385.407 333.252,384.599C340.777,376.685 377.801,341.547 386.098,335.084C387.092,334.31 387.814,333.893 388.141,333.783C388.878,333.534 389.414,333.711 389.737,333.873C391.566,334.789 393.181,336.587 394.145,337.516C394.417,337.778 394.935,338.362 394.642,339.386C394.591,339.567 394.157,340.386 393.294,341.657C387.904,349.595 364.213,382.054 353.631,395.639C350.801,399.272 348.796,401.603 348.245,401.987C347.908,402.221 347.366,402.464 346.585,402.285C346.21,402.199 345.386,401.8 344.341,401.062C341.647,399.159 336.592,394.829 333.801,391.687C332.845,390.611 332.142,389.643 331.794,388.923C331.671,388.668 331.583,388.427 331.524,388.202ZM388.876,337.717C388.178,338.249 386.968,339.191 385.758,340.228C375.684,348.87 350.908,372.31 339.974,383.137C337.895,385.196 336.327,386.782 335.484,387.701C335.844,388.21 336.463,389.048 337.065,389.697C339.87,392.724 344.533,396.691 346.782,398.208C347.581,397.285 348.908,395.588 350.639,393.365C361.182,379.83 384.789,347.49 390.159,339.581L390.467,339.119C390,338.646 389.464,338.139 388.876,337.717ZM335.18,387.263C335.138,386.523 334.715,386.081 334.191,385.805C334.75,386.1 335.119,386.649 335.18,387.263L335.18,387.263Z"/>
    </g>
    <g transform="matrix(0.533218,-0.0584224,0.0584224,0.533218,248.866,121.094)">
        <path d="M333.303,387.45C332.511,387.033 387.412,334.799 388.883,335.536C390.531,336.361 391.958,338.013 392.826,338.85C393.243,339.252 350.017,398.472 347.157,400.463C346.435,400.966 333.303,389.98 333.303,387.45Z" style="fill:rgb(145,0,72);"/>
        <path d="M331.549,388.214C331.414,387.904 331.369,387.516 331.474,387.03C331.507,386.873 331.589,386.587 331.833,386.235C332.018,385.966 332.509,385.398 333.276,384.591C340.802,376.677 377.824,341.54 386.122,335.077C387.111,334.306 387.83,333.891 388.155,333.781C388.877,333.537 389.402,333.711 389.718,333.869C391.545,334.784 393.158,336.58 394.12,337.508C394.395,337.772 394.913,338.36 394.618,339.392C394.567,339.573 394.133,340.393 393.269,341.666C387.879,349.604 364.187,382.063 353.606,395.648C350.777,399.28 348.774,401.609 348.222,401.993C347.892,402.223 347.36,402.462 346.595,402.286C346.222,402.201 345.403,401.803 344.363,401.068C341.67,399.165 336.616,394.836 333.826,391.695C332.87,390.62 332.167,389.652 331.819,388.931C331.697,388.678 331.609,388.438 331.549,388.214ZM388.876,337.707C388.18,338.236 386.956,339.188 385.734,340.236C375.66,348.878 350.884,372.318 339.95,383.145C337.876,385.199 336.31,386.782 335.466,387.703C335.826,388.211 336.442,389.044 337.04,389.689C339.857,392.728 344.548,396.716 346.788,398.22C347.586,397.302 348.921,395.595 350.664,393.356C361.207,379.821 384.814,347.481 390.184,339.572L390.485,339.12C390.013,338.643 389.47,338.131 388.876,337.707ZM335.157,387.258C335.114,386.519 334.696,386.077 334.172,385.801C334.727,386.093 335.094,386.642 335.156,387.257L335.157,387.258Z"/>
    </g>
    <g transform="matrix(-0.118568,0.523141,-0.523141,-0.118568,697.877,106.076)">
        <path d="M333.303,387.45C332.511,387.033 387.412,334.799 388.883,335.536C390.531,336.361 391.958,338.013 392.826,338.85C393.243,339.252 350.017,398.472 347.157,400.463C346.435,400.966 333.303,389.98 333.303,387.45Z" style="fill:rgb(145,0,72);"/>
        <path d="M331.549,388.214C331.414,387.904 331.369,387.516 331.474,387.03C331.507,386.873 331.589,386.587 331.833,386.235C332.018,385.966 332.509,385.398 333.276,384.591C340.802,376.677 377.824,341.54 386.122,335.077C387.111,334.306 387.83,333.891 388.155,333.781C388.877,333.537 389.402,333.711 389.718,333.869C391.545,334.784 393.158,336.58 394.12,337.508C394.395,337.772 394.913,338.36 394.618,339.392C394.567,339.573 394.133,340.393 393.269,341.666C387.879,349.604 364.187,382.063 353.606,395.648C350.777,399.28 348.774,401.609 348.222,401.993C347.892,402.223 347.36,402.462 346.595,402.286C346.222,402.201 345.403,401.803 344.363,401.068C341.67,399.165 336.616,394.836 333.826,391.695C332.87,390.62 332.167,389.652 331.819,388.931C331.697,388.678 331.609,388.438 331.549,388.214ZM335.466,387.703C335.826,388.211 336.442,389.044 337.04,389.689C339.857,392.728 344.548,396.716 346.788,398.22C347.586,397.302 348.921,395.595 350.664,393.356C361.207,379.821 384.814,347.481 390.184,339.572L390.485,339.12C390.013,338.643 389.47,338.131 388.876,337.707C388.18,338.236 386.956,339.188 385.734,340.236C375.66,348.878 350.884,372.318 339.95,383.145C337.876,385.199 336.31,386.782 335.466,387.703ZM335.157,387.258C335.114,386.519 334.696,386.077 334.172,385.801C334.727,386.093 335.094,386.642 335.156,387.257L335.157,387.258Z"/>
    </g>
    <g transform="matrix(-0.39073,-0.367512,0.367512,-0.39073,430.734,510.935)">
        <path d="M333.303,387.45C332.511,387.033 387.412,334.799 388.883,335.536C390.531,336.361 391.958,338.013 392.826,338.85C393.243,339.252 350.017,398.472 347.157,400.463C346.435,400.966 333.303,389.98 333.303,387.45Z" style="fill:rgb(145,0,72);"/>
        <path d="M331.549,388.214C331.414,387.904 331.369,387.516 331.474,387.03C331.507,386.873 331.589,386.587 331.833,386.235C332.018,385.966 332.509,385.398 333.276,384.591C340.802,376.677 377.824,341.54 386.122,335.077C387.111,334.306 387.83,333.891 388.155,333.781C388.877,333.537 389.402,333.711 389.718,333.869C391.545,334.784 393.158,336.58 394.12,337.508C394.395,337.772 394.913,338.36 394.618,339.392C394.567,339.573 394.133,340.393 393.269,341.666C387.879,349.604 364.187,382.063 353.606,395.648C350.777,399.28 348.774,401.609 348.222,401.993C347.892,402.223 347.36,402.462 346.595,402.286C346.222,402.201 345.403,401.803 344.363,401.068C341.67,399.165 336.616,394.836 333.826,391.695C332.87,390.62 332.167,389.652 331.819,388.931C331.697,388.678 331.609,388.438 331.549,388.214ZM335.157,387.258C335.114,386.519 334.696,386.077 334.172,385.801C334.727,386.093 335.094,386.642 335.156,387.257L335.157,387.258ZM346.788,398.22C347.586,397.302 348.921,395.595 350.664,393.356C361.207,379.821 384.814,347.481 390.184,339.572L390.485,339.12C390.013,338.643 389.47,338.131 388.876,337.707C388.18,338.236 386.956,339.188 385.734,340.236C375.66,348.878 350.884,372.318 339.95,383.145C337.876,385.199 336.31,386.782 335.466,387.703C335.826,388.211 336.442,389.044 337.04,389.689C339.857,392.728 344.548,396.716 346.788,398.22Z"/>
    </g>
    <g transform="matrix(0.530261,-0.080984,0.080984,0.530261,161.881,88.2763)">
        <path d="M333.303,387.45C332.511,387.033 387.412,334.799 388.883,335.536C390.531,336.361 391.958,338.013 392.826,338.85C393.243,339.252 350.017,398.472 347.157,400.463C346.435,400.966 333.303,389.98 333.303,387.45Z" style="fill:rgb(145,0,72);"/>
        <path d="M331.549,388.214C331.414,387.904 331.369,387.516 331.474,387.03C331.507,386.873 331.589,386.587 331.833,386.235C332.018,385.966 332.509,385.398 333.276,384.591C340.802,376.677 377.824,341.54 386.122,335.077C387.111,334.306 387.83,333.891 388.155,333.781C388.877,333.537 389.402,333.711 389.718,333.869C391.545,334.784 393.158,336.58 394.12,337.508C394.395,337.772 394.913,338.36 394.618,339.392C394.567,339.573 394.133,340.393 393.269,341.666C387.879,349.604 364.187,382.063 353.606,395.648C350.777,399.28 348.774,401.609 348.222,401.993C347.892,402.223 347.36,402.462 346.595,402.286C346.222,402.201 345.403,401.803 344.363,401.068C341.67,399.165 336.616,394.836 333.826,391.695C332.87,390.62 332.167,389.652 331.819,388.931C331.697,388.678 331.609,388.438 331.549,388.214ZM388.876,337.707C388.18,338.236 386.956,339.188 385.734,340.236C375.66,348.878 350.884,372.318 339.95,383.145C337.876,385.199 336.31,386.782 335.466,387.703C335.826,388.211 336.442,389.044 337.04,389.689C339.857,392.728 344.548,396.716 346.788,398.22C347.586,397.302 348.921,395.595 350.664,393.356C361.207,379.821 384.814,347.481 390.184,339.572L390.485,339.12C390.013,338.643 389.47,338.131 388.876,337.707ZM335.157,387.258C335.114,386.519 334.696,386.077 334.172,385.801C334.727,386.093 335.094,386.642 335.156,387.257L335.157,387.258Z"/>
    </g>
</svg>
