<?xml version="1.0" encoding="UTF-8" standalone="no"?>
<!DOCTYPE svg PUBLIC "-//W3C//DTD SVG 1.1//EN" "http://www.w3.org/Graphics/SVG/1.1/DTD/svg11.dtd">
<svg width="100%" height="100%" viewBox="0 0 583 524" version="1.1" xmlns="http://www.w3.org/2000/svg" xmlns:xlink="http://www.w3.org/1999/xlink" xml:space="preserve" xmlns:serif="http://www.serif.com/" style="fill-rule:evenodd;clip-rule:evenodd;stroke-linejoin:round;stroke-miterlimit:2;">
    <g id="Layer1">
        <g transform="matrix(0.872872,0.789323,-0.397034,0.43906,461.744,181.96)">
            <path d="M46.453,411.278C46.504,413.129 46.169,414.94 45.528,416.287C44.887,417.633 43.995,418.395 43.063,418.395C40.794,418.395 37.874,418.395 35.619,418.395C34.705,418.395 33.831,417.648 33.202,416.328C32.574,415.009 32.246,413.233 32.296,411.419C32.93,388.284 34.957,314.3 35.566,292.094C35.664,288.526 37.147,285.733 38.945,285.733L39.831,285.733C41.615,285.733 43.088,288.506 43.185,292.048C43.791,314.154 45.814,387.969 46.453,411.278Z" style="fill:rgb(151,41,94);"/>
            <path d="M46.759,411.245L43.506,292.013C43.453,290.073 43.023,288.342 42.362,287.097C41.701,285.852 40.808,285.093 39.831,285.092C39.831,285.092 38.945,285.092 38.945,285.092C37.96,285.092 37.062,285.857 36.396,287.11C35.731,288.363 35.297,290.105 35.244,292.059C35.244,292.059 31.977,411.384 31.977,411.384C31.95,412.378 32.027,413.362 32.196,414.277C32.366,415.192 32.628,416.039 32.972,416.761C33.317,417.484 33.728,418.049 34.179,418.434C34.629,418.818 35.118,419.022 35.619,419.022C35.619,419.022 43.063,419.012 43.063,419.012C43.572,419.011 44.069,418.803 44.527,418.411C44.984,418.018 45.402,417.443 45.752,416.708C46.101,415.974 46.367,415.112 46.539,414.182C46.71,413.253 46.787,412.254 46.759,411.245ZM46.147,411.311C46.169,412.153 46.105,412.986 45.961,413.761C45.818,414.536 45.596,415.253 45.304,415.865C45.012,416.476 44.664,416.955 44.282,417.281C43.901,417.606 43.486,417.779 43.063,417.778C43.063,417.778 35.619,417.769 35.619,417.769C35.205,417.768 34.801,417.598 34.428,417.279C34.056,416.96 33.717,416.492 33.432,415.895C33.148,415.298 32.932,414.597 32.793,413.841C32.654,413.086 32.591,412.274 32.614,411.453C32.614,411.453 35.888,292.129 35.888,292.129C35.932,290.515 36.29,289.076 36.84,288.041C37.39,287.005 38.132,286.373 38.945,286.373C38.945,286.373 39.831,286.373 39.831,286.373C40.637,286.373 41.374,287 41.919,288.027C42.465,289.054 42.82,290.481 42.864,292.083C42.864,292.083 46.147,411.311 46.147,411.311Z"/>
        </g>
        <g transform="matrix(-0.968606,0.505776,-0.210864,-0.403824,447.551,358.545)">
            <path d="M46.392,409.049C46.458,411.47 46.103,413.849 45.412,415.619C44.721,417.39 43.755,418.395 42.743,418.395C40.631,418.395 38.032,418.395 35.932,418.395C34.941,418.395 33.994,417.41 33.316,415.674C32.638,413.939 32.291,411.607 32.356,409.234C33.03,384.618 34.875,317.323 35.516,293.9C35.642,289.305 37.233,285.733 39.153,285.733C39.31,285.733 39.467,285.733 39.624,285.733C41.53,285.733 43.109,289.28 43.234,293.842C43.873,317.153 45.712,384.262 46.392,409.049Z" style="fill:rgb(151,41,94);"/>
            <path d="M46.721,408.997L43.58,293.787C43.511,291.288 43.045,289.066 42.334,287.47C41.623,285.873 40.668,284.901 39.624,284.901C39.624,284.901 39.153,284.901 39.153,284.901C38.102,284.901 37.14,285.879 36.425,287.486C35.709,289.093 35.239,291.329 35.17,293.846C35.17,293.846 32.01,409.18 32.01,409.18C31.975,410.481 32.053,411.77 32.233,412.972C32.412,414.173 32.693,415.287 33.065,416.237C33.437,417.188 33.882,417.932 34.37,418.439C34.858,418.945 35.389,419.214 35.932,419.213C35.932,419.213 42.743,419.199 42.743,419.199C43.295,419.198 43.835,418.923 44.33,418.406C44.826,417.89 45.278,417.132 45.655,416.165C46.032,415.198 46.317,414.066 46.498,412.846C46.68,411.626 46.758,410.317 46.721,408.997ZM46.062,409.101C46.092,410.202 46.026,411.293 45.874,412.31C45.722,413.327 45.484,414.27 45.169,415.074C44.855,415.878 44.478,416.508 44.065,416.936C43.652,417.365 43.203,417.592 42.743,417.591C42.743,417.591 35.932,417.577 35.932,417.577C35.484,417.576 35.045,417.352 34.642,416.933C34.24,416.513 33.873,415.897 33.567,415.111C33.261,414.326 33.029,413.406 32.882,412.415C32.734,411.424 32.671,410.361 32.701,409.289C32.701,409.289 35.863,293.955 35.863,293.955C35.92,291.876 36.308,290.029 36.899,288.701C37.49,287.373 38.284,286.565 39.153,286.565C39.153,286.565 39.624,286.564 39.624,286.564C40.486,286.564 41.274,287.366 41.86,288.683C42.447,290 42.832,291.833 42.889,293.896C42.889,293.896 46.062,409.101 46.062,409.101Z"/>
        </g>
        <g transform="matrix(-0.3524,1.03432,-0.431221,-0.14692,427.877,265.531)">
            <path d="M46.392,409.049C46.458,411.47 46.103,413.849 45.412,415.619C44.721,417.39 43.755,418.395 42.743,418.395C40.631,418.395 38.032,418.395 35.932,418.395C34.941,418.395 33.994,417.41 33.316,415.674C32.638,413.939 32.291,411.607 32.356,409.234C33.03,384.618 34.875,317.323 35.516,293.9C35.642,289.305 37.233,285.733 39.153,285.733C39.31,285.733 39.467,285.733 39.624,285.733C41.53,285.733 43.109,289.28 43.234,293.842C43.873,317.153 45.712,384.262 46.392,409.049Z" style="fill:rgb(151,41,94);"/>
            <path d="M46.721,408.997L43.58,293.787C43.511,291.288 43.045,289.066 42.334,287.47C41.623,285.873 40.668,284.901 39.624,284.901C39.624,284.901 39.153,284.901 39.153,284.901C38.102,284.901 37.14,285.879 36.425,287.486C35.709,289.093 35.239,291.329 35.17,293.846C35.17,293.846 32.01,409.18 32.01,409.18C31.975,410.481 32.053,411.77 32.233,412.972C32.412,414.173 32.693,415.287 33.065,416.237C33.437,417.188 33.882,417.932 34.37,418.439C34.858,418.945 35.389,419.214 35.932,419.213C35.932,419.213 42.743,419.199 42.743,419.199C43.295,419.198 43.835,418.923 44.33,418.406C44.826,417.89 45.278,417.132 45.655,416.165C46.032,415.198 46.317,414.066 46.498,412.846C46.68,411.626 46.758,410.317 46.721,408.997ZM46.062,409.101C46.092,410.202 46.026,411.293 45.874,412.31C45.722,413.327 45.484,414.27 45.169,415.074C44.855,415.878 44.478,416.508 44.065,416.936C43.652,417.365 43.203,417.592 42.743,417.591C42.743,417.591 35.932,417.577 35.932,417.577C35.484,417.576 35.045,417.352 34.642,416.933C34.24,416.513 33.873,415.897 33.567,415.111C33.261,414.326 33.029,413.406 32.882,412.415C32.734,411.424 32.671,410.361 32.701,409.289C32.701,409.289 35.863,293.955 35.863,293.955C35.92,291.876 36.308,290.029 36.899,288.701C37.49,287.373 38.284,286.565 39.153,286.565C39.153,286.565 39.624,286.564 39.624,286.564C40.486,286.564 41.274,287.366 41.86,288.683C42.447,290 42.832,291.833 42.889,293.896C42.889,293.896 46.062,409.101 46.062,409.101Z"/>
        </g>
        <g transform="matrix(-0.905194,0.693351,-0.257188,-0.335767,425.799,271.357)">
            <path d="M46.37,408.252C46.442,410.871 46.106,413.453 45.443,415.377C44.78,417.302 43.849,418.395 42.875,418.395C40.697,418.395 37.968,418.395 35.803,418.395C34.848,418.395 33.936,417.323 33.286,415.437C32.636,413.551 32.307,411.02 32.377,408.453C33.063,383.422 34.853,318.115 35.501,294.454C35.636,289.537 37.155,285.733 38.984,285.733C39.252,285.733 39.523,285.733 39.792,285.733C41.607,285.733 43.116,289.509 43.249,294.391C43.895,317.937 45.679,383.052 46.37,408.252Z" style="fill:rgb(151,41,94);"/>
            <path d="M46.686,408.189L43.58,294.325C43.507,291.651 43.057,289.279 42.377,287.576C41.697,285.872 40.786,284.838 39.792,284.837C39.792,284.837 38.984,284.837 38.984,284.837C37.983,284.837 37.066,285.878 36.381,287.592C35.696,289.307 35.243,291.695 35.169,294.388C35.169,294.388 32.045,408.387 32.045,408.387C32.007,409.795 32.078,411.192 32.248,412.496C32.418,413.8 32.687,415.01 33.044,416.043C33.4,417.076 33.828,417.886 34.298,418.437C34.768,418.988 35.279,419.28 35.803,419.279C35.803,419.279 42.875,419.262 42.875,419.262C43.407,419.261 43.927,418.962 44.404,418.399C44.881,417.838 45.315,417.014 45.677,415.963C46.038,414.912 46.31,413.683 46.482,412.359C46.653,411.035 46.725,409.617 46.686,408.189ZM46.054,408.315C46.087,409.506 46.026,410.689 45.882,411.792C45.738,412.895 45.511,413.918 45.209,414.792C44.907,415.666 44.545,416.35 44.148,416.816C43.75,417.282 43.318,417.529 42.875,417.528C42.875,417.528 35.803,417.511 35.803,417.511C35.371,417.51 34.949,417.267 34.561,416.81C34.174,416.354 33.821,415.684 33.528,414.831C33.235,413.978 33.014,412.979 32.874,411.904C32.735,410.83 32.677,409.678 32.709,408.519C32.709,408.519 35.833,294.52 35.833,294.52C35.894,292.296 36.268,290.323 36.834,288.906C37.399,287.49 38.157,286.629 38.984,286.629C38.984,286.629 39.792,286.628 39.792,286.628C40.613,286.628 41.364,287.481 41.925,288.887C42.487,290.292 42.858,292.25 42.919,294.457C42.919,294.457 46.054,408.315 46.054,408.315Z"/>
        </g>
        <g transform="matrix(-0.947209,-0.112644,0.0493974,-0.415375,394.206,367.878)">
            <path d="M46.37,408.248C46.442,410.879 46.034,413.462 45.242,415.383C44.45,417.305 43.346,418.395 42.189,418.395C40.374,418.395 38.281,418.395 36.475,418.395C35.342,418.395 34.259,417.327 33.483,415.443C32.706,413.559 32.306,411.028 32.377,408.448C33.067,383.266 34.874,317.343 35.513,294.04C35.641,289.37 37.339,285.733 39.39,285.733C39.391,285.733 39.391,285.733 39.392,285.733C41.427,285.733 43.111,289.341 43.238,293.972C43.873,317.154 45.675,382.893 46.37,408.248Z" style="fill:rgb(151,41,94);"/>
            <path d="M46.747,408.194L43.634,293.916C43.564,291.362 43.064,289.09 42.302,287.456C41.54,285.822 40.514,284.827 39.392,284.827C39.392,284.827 39.39,284.827 39.39,284.827C38.26,284.827 37.226,285.829 36.458,287.474C35.689,289.12 35.186,291.409 35.115,293.983C35.115,293.983 31.982,408.392 31.982,408.392C31.944,409.806 32.034,411.207 32.241,412.512C32.448,413.816 32.77,415.025 33.196,416.057C33.622,417.088 34.131,417.895 34.689,418.445C35.247,418.994 35.854,419.286 36.475,419.284C36.475,419.284 42.189,419.272 42.189,419.272C42.82,419.271 43.437,418.972 44.004,418.412C44.571,417.851 45.089,417.028 45.52,415.979C45.951,414.93 46.278,413.701 46.487,412.375C46.696,411.05 46.787,409.629 46.747,408.194ZM45.992,408.301C46.025,409.498 45.948,410.684 45.773,411.788C45.598,412.892 45.324,413.915 44.964,414.788C44.604,415.66 44.173,416.343 43.7,416.808C43.228,417.273 42.714,417.519 42.189,417.518C42.189,417.518 36.475,417.506 36.475,417.506C35.962,417.505 35.461,417.262 35,416.806C34.54,416.351 34.12,415.682 33.769,414.829C33.419,413.977 33.153,412.978 32.984,411.901C32.814,410.825 32.74,409.67 32.772,408.505C32.772,408.505 35.91,294.096 35.91,294.096C35.967,292.001 36.377,290.136 37.002,288.796C37.628,287.456 38.469,286.639 39.39,286.639C39.39,286.639 39.392,286.639 39.392,286.639C40.304,286.638 41.138,287.447 41.759,288.775C42.379,290.104 42.785,291.952 42.842,294.029C42.842,294.029 45.992,408.301 45.992,408.301Z"/>
        </g>
        <g transform="matrix(-0.973399,-0.0243193,0.00757834,-0.303329,414.898,268.097)">
            <path d="M46.255,404.073C46.356,407.752 45.971,411.398 45.194,414.121C44.416,416.844 43.319,418.395 42.168,418.395C40.364,418.395 38.291,418.395 36.496,418.395C35.368,418.395 34.292,416.875 33.53,414.206C32.768,411.536 32.39,407.963 32.489,404.357C33.21,378.045 34.753,321.772 35.421,297.394C35.602,290.795 37.324,285.733 39.388,285.733C39.389,285.733 39.39,285.733 39.391,285.733C41.44,285.733 43.15,290.758 43.329,297.31C43.994,321.556 45.53,377.612 46.255,404.073Z" style="fill:rgb(151,41,94);"/>
            <path d="M46.625,403.969L43.716,297.201C43.617,293.603 43.099,290.425 42.323,288.145C41.548,285.866 40.516,284.486 39.391,284.485C39.391,284.485 39.388,284.485 39.388,284.485C38.255,284.485 37.216,285.873 36.435,288.167C35.654,290.462 35.132,293.662 35.033,297.284C35.033,297.284 32.099,404.246 32.099,404.246C32.045,406.225 32.121,408.195 32.316,410.036C32.511,411.876 32.824,413.588 33.242,415.051C33.661,416.513 34.165,417.66 34.719,418.441C35.274,419.221 35.878,419.636 36.496,419.633C36.496,419.633 42.168,419.611 42.168,419.611C42.796,419.609 43.41,419.183 43.973,418.386C44.535,417.589 45.046,416.421 45.47,414.933C45.894,413.446 46.21,411.708 46.407,409.839C46.603,407.972 46.68,405.975 46.625,403.969L46.625,403.969ZM45.886,404.177C45.931,405.85 45.866,407.515 45.701,409.071C45.536,410.627 45.271,412.073 44.917,413.309C44.564,414.544 44.138,415.513 43.669,416.173C43.201,416.832 42.69,417.181 42.168,417.179C42.168,417.179 36.496,417.157 36.496,417.157C35.986,417.155 35.488,416.809 35.032,416.162C34.576,415.516 34.161,414.567 33.817,413.36C33.474,412.154 33.218,410.744 33.058,409.229C32.898,407.714 32.835,406.094 32.879,404.467C32.879,404.467 35.809,297.503 35.809,297.503C35.89,294.526 36.32,291.896 36.961,290.01C37.603,288.123 38.457,286.981 39.388,286.98C39.388,286.98 39.391,286.98 39.391,286.98C40.315,286.98 41.162,288.112 41.799,289.983C42.436,291.855 42.862,294.464 42.943,297.419L45.886,404.177Z"/>
        </g>
        <g transform="matrix(0.283126,0.759904,-0.759392,0.282936,386.317,-109.644)">
            <path d="M272.147,105.937C272.085,105.989 233.666,135.716 227.643,159.791C222.987,178.404 257.594,206.582 268.363,214.425C269.429,215.184 270.787,215.404 272.038,215.018C277.24,213.367 280.56,209.309 278.693,206.6C275.466,201.916 235.416,170.625 235.667,161.119C235.943,150.661 275.644,122.847 278.163,118.312C278.291,118.081 278.467,117.71 278.395,117.306C277.941,114.775 275.227,106.7 273.595,105.776C273.384,105.656 272.755,105.43 272.147,105.937Z" style="fill:rgb(151,41,94);"/>
            <path d="M271.862,105.595C271.82,105.63 254.504,119.015 241.271,135.104C234.727,143.06 229.189,151.681 227.187,159.677C225.248,167.427 229.958,176.833 237.011,185.756C247.031,198.431 261.717,210.165 268.087,214.804C268.683,215.229 269.357,215.501 270.056,215.614C270.756,215.727 271.481,215.681 272.176,215.467C274.94,214.589 277.185,213.051 278.467,211.39C279.792,209.674 280.102,207.82 279.079,206.335C276.943,203.236 258.726,188.506 246.667,176.121C243.082,172.439 240.044,168.967 238.153,166.075C236.859,164.095 236.097,162.411 236.131,161.132C236.165,159.799 236.891,158.178 238.095,156.346C239.947,153.527 242.933,150.246 246.462,146.813C254.556,138.938 265.495,130.274 272.288,124.53C275.645,121.692 277.995,119.539 278.555,118.53C278.656,118.349 278.778,118.095 278.831,117.807C278.865,117.624 278.873,117.428 278.836,117.226C278.58,115.797 277.612,112.619 276.518,109.927C275.904,108.416 275.247,107.058 274.657,106.234C274.362,105.822 274.072,105.534 273.814,105.388C273.64,105.289 273.257,105.135 272.797,105.185C272.505,105.217 272.181,105.329 271.862,105.595ZM272.432,106.279C272.59,106.147 272.749,106.087 272.894,106.071C273.111,106.047 273.293,106.117 273.375,106.163C273.629,106.307 273.897,106.666 274.194,107.149C274.681,107.939 275.198,109.051 275.691,110.264C276.757,112.891 277.704,115.99 277.954,117.385C277.974,117.501 277.96,117.612 277.933,117.713C277.894,117.864 277.826,117.995 277.771,118.094C277.231,119.065 274.94,121.109 271.706,123.841C264.897,129.592 253.934,138.267 245.821,146.154C242.235,149.639 239.205,152.974 237.321,155.838C235.999,157.848 235.242,159.644 235.203,161.107C235.165,162.519 235.948,164.4 237.376,166.584C239.292,169.515 242.367,173.038 246.001,176.771C258.016,189.113 276.181,203.778 278.308,206.866C279.111,208.031 278.765,209.472 277.726,210.817C276.539,212.354 274.451,213.76 271.896,214.571C271.344,214.741 270.765,214.778 270.206,214.688C269.647,214.597 269.108,214.38 268.635,214.042C262.307,209.433 247.709,197.771 237.749,185.172C230.904,176.512 226.218,167.427 228.1,159.905C230.07,152.025 235.547,143.54 241.99,135.695C255.159,119.663 272.39,106.314 272.432,106.279Z"/>
        </g>
        <g transform="matrix(0.694576,0.54358,-0.195896,0.250312,486.76,96.018)">
            <path d="M46.277,404.872C46.373,408.361 45.94,411.803 45.083,414.37C44.225,416.936 43.021,418.395 41.76,418.395C40.192,418.395 38.457,418.395 36.896,418.395C35.659,418.395 34.479,416.965 33.639,414.449C32.798,411.933 32.374,408.559 32.468,405.139C33.195,378.612 34.814,319.515 35.464,295.833C35.62,290.135 37.331,285.733 39.391,285.733C39.392,285.733 39.392,285.733 39.393,285.733C41.435,285.733 43.132,290.097 43.286,295.746C43.932,319.291 45.546,378.184 46.277,404.872Z" style="fill:rgb(151,41,94);"/>
            <path d="M46.685,404.786L43.714,295.656C43.628,292.521 43.114,289.743 42.339,287.748C41.563,285.753 40.526,284.542 39.393,284.541C39.393,284.541 39.391,284.541 39.391,284.541C38.249,284.541 37.203,285.761 36.421,287.771C35.639,289.782 35.121,292.583 35.034,295.743C35.034,295.743 32.037,405.048 32.037,405.048C31.986,406.925 32.077,408.788 32.297,410.527C32.516,412.265 32.863,413.879 33.325,415.257C33.786,416.634 34.34,417.715 34.948,418.449C35.556,419.183 36.218,419.573 36.896,419.571C36.896,419.571 41.76,419.555 41.76,419.555C42.449,419.553 43.122,419.153 43.739,418.402C44.357,417.652 44.919,416.552 45.386,415.15C45.853,413.748 46.204,412.108 46.426,410.343C46.647,408.578 46.738,406.688 46.685,404.786ZM45.869,404.958C45.912,406.545 45.835,408.12 45.649,409.591C45.463,411.06 45.17,412.424 44.779,413.59C44.389,414.754 43.921,415.666 43.407,416.288C42.893,416.908 42.333,417.237 41.76,417.235C41.76,417.235 36.896,417.219 36.896,417.219C36.337,417.217 35.79,416.892 35.289,416.282C34.788,415.673 34.332,414.78 33.953,413.642C33.574,412.504 33.289,411.173 33.109,409.74C32.93,408.308 32.856,406.774 32.899,405.23C32.899,405.23 35.893,295.924 35.893,295.924C35.962,293.386 36.378,291.136 37.006,289.521C37.634,287.906 38.474,286.925 39.391,286.924C39.391,286.924 39.393,286.924 39.393,286.924C40.302,286.924 41.134,287.895 41.756,289.494C42.378,291.094 42.79,293.322 42.859,295.836C42.859,295.836 45.869,404.958 45.869,404.958Z"/>
        </g>
        <g transform="matrix(0.681332,-0.560091,0.201846,0.245539,309.186,141.686)">
            <path d="M46.277,404.872C46.373,408.361 45.94,411.803 45.083,414.37C44.225,416.936 43.021,418.395 41.76,418.395C40.192,418.395 38.457,418.395 36.896,418.395C35.659,418.395 34.479,416.965 33.639,414.449C32.798,411.933 32.374,408.559 32.468,405.139C33.195,378.612 34.814,319.515 35.464,295.833C35.62,290.135 37.331,285.733 39.391,285.733C39.392,285.733 39.392,285.733 39.393,285.733C41.435,285.733 43.132,290.097 43.286,295.746C43.932,319.291 45.546,378.184 46.277,404.872Z" style="fill:rgb(151,41,94);"/>
            <path d="M46.685,404.786L43.714,295.656C43.628,292.521 43.114,289.743 42.339,287.748C41.563,285.753 40.526,284.542 39.393,284.541C39.393,284.541 39.391,284.541 39.391,284.541C38.249,284.541 37.203,285.761 36.421,287.771C35.639,289.782 35.121,292.583 35.034,295.743C35.034,295.743 32.037,405.048 32.037,405.048C31.986,406.925 32.077,408.788 32.297,410.527C32.516,412.265 32.863,413.879 33.325,415.257C33.786,416.634 34.34,417.715 34.948,418.449C35.556,419.183 36.218,419.573 36.896,419.571C36.896,419.571 41.76,419.555 41.76,419.555C42.449,419.553 43.122,419.153 43.739,418.402C44.357,417.652 44.919,416.552 45.386,415.15C45.853,413.748 46.204,412.108 46.426,410.343C46.647,408.578 46.738,406.688 46.685,404.786ZM45.869,404.958C45.912,406.545 45.835,408.12 45.649,409.591C45.463,411.06 45.17,412.424 44.779,413.59C44.389,414.754 43.921,415.666 43.407,416.288C42.893,416.908 42.333,417.237 41.76,417.235C41.76,417.235 36.896,417.219 36.896,417.219C36.337,417.217 35.79,416.892 35.289,416.282C34.788,415.673 34.332,414.78 33.953,413.642C33.574,412.504 33.289,411.173 33.109,409.74C32.93,408.308 32.856,406.774 32.899,405.23C32.899,405.23 35.893,295.924 35.893,295.924C35.962,293.386 36.378,291.136 37.006,289.521C37.634,287.906 38.474,286.925 39.391,286.924C39.391,286.924 39.393,286.924 39.393,286.924C40.302,286.924 41.134,287.895 41.756,289.494C42.378,291.094 42.79,293.322 42.859,295.836C42.859,295.836 45.869,404.958 45.869,404.958Z"/>
        </g>
        <g transform="matrix(0.999993,-0.00366129,0.00366129,0.999993,-6.63207,-3.50847)">
            <path d="M451.327,265.284C449.427,264.761 447.709,265.181 446.344,266.058C445.083,266.868 444.551,268.268 444.336,269.714C444.126,271.595 445.082,273.327 446.597,274.642C447.788,275.676 449.479,276.235 451.327,276.363C453.674,276.47 455.772,275.574 457.189,274.259C458.483,273.058 459.167,271.435 459.194,269.714C459.187,267.988 458.483,266.376 457.212,265.145C455.809,263.786 453.7,262.866 451.327,262.902L451.327,265.284ZM451.327,268.562C451.838,268.57 452.308,268.711 452.703,268.925C453.051,269.113 453.385,269.353 453.382,269.714C453.39,270.083 453.083,270.355 452.732,270.556C452.325,270.79 451.859,271 451.327,271.028C450.622,271.076 449.95,271.017 449.432,270.71C448.974,270.44 448.453,270.212 448.397,269.714C448.318,269.203 448.339,268.697 448.648,268.263C448.834,268.002 448.941,267.71 449.19,267.478C449.79,266.919 450.43,266.432 451.327,266.181L451.327,268.562Z"/>
        </g>
        <g transform="matrix(1,-8.7584e-05,8.7584e-05,1,-45.3108,-5.0566)">
            <path d="M451.327,265.284C449.427,264.761 447.709,265.181 446.344,266.058C445.083,266.868 444.551,268.268 444.336,269.714C444.126,271.595 445.082,273.327 446.597,274.642C447.788,275.676 449.479,276.235 451.327,276.363C453.674,276.47 455.772,275.574 457.189,274.259C458.483,273.058 459.167,271.435 459.194,269.714C459.187,267.988 458.483,266.376 457.212,265.145C455.809,263.786 453.7,262.866 451.327,262.902L451.327,265.284ZM451.327,268.562C451.838,268.57 452.308,268.711 452.703,268.925C453.051,269.113 453.385,269.353 453.382,269.714C453.39,270.083 453.083,270.355 452.732,270.556C452.325,270.79 451.859,271 451.327,271.028C450.622,271.076 449.95,271.017 449.432,270.71C448.974,270.44 448.453,270.212 448.397,269.714C448.318,269.203 448.339,268.697 448.648,268.263C448.834,268.002 448.941,267.71 449.19,267.478C449.79,266.919 450.43,266.432 451.327,266.181L451.327,268.562Z"/>
        </g>
        <g transform="matrix(0.598225,-5.2395e-05,6.03666e-05,0.689242,156.865,94.0952)">
            <path d="M451.327,265.302C449.301,264.8 447.456,265.33 445.993,266.335C444.835,267.13 444.359,268.391 444.125,269.714C443.891,271.467 444.769,273.069 446.111,274.318C447.372,275.493 449.265,276.123 451.327,276.252C453.449,276.344 455.384,275.667 456.848,274.615C458.505,273.422 459.452,271.644 459.497,269.714C459.483,267.776 458.513,266.009 456.883,264.778C455.431,263.682 453.478,262.989 451.327,263.02L451.327,265.302ZM451.327,268.444C451.846,268.452 452.305,268.64 452.648,268.911C452.908,269.116 453.082,269.398 453.079,269.714C453.087,270.037 452.943,270.335 452.683,270.551C452.326,270.847 451.878,271.115 451.327,271.139C450.712,271.177 450.113,271.131 449.668,270.848C449.197,270.547 448.678,270.234 448.608,269.714C448.51,269.178 448.487,268.662 448.776,268.207C448.94,267.95 449.001,267.673 449.23,267.447C449.802,266.882 450.411,266.393 451.327,266.162L451.327,268.444Z"/>
        </g>
        <g transform="matrix(1.10576,0.00764135,-0.00597396,0.864479,-41.831,41.2018)">
            <path d="M436.684,288.723C436.742,288.543 436.842,288.383 436.979,288.268C437.299,287.953 437.574,288.048 437.671,288.065C437.987,288.122 438.592,288.597 438.171,289.664C438.079,289.897 437.673,290.551 436.964,291.409C436.291,292.224 435.331,293.249 434.085,294.217C433.142,294.95 432.027,295.608 430.794,296.184C430.218,296.444 429.474,296.659 428.72,296.816C427.457,297.079 426.168,297.18 425.672,297.186C424.856,297.182 423.795,296.998 422.668,296.684C421.281,296.297 419.786,295.727 418.545,295.182C416.029,294.039 414.296,292.722 413.536,292.051C413.279,291.825 413.113,291.659 413.04,291.575C412.658,291.131 412.639,290.693 412.635,290.59C412.614,290.062 412.759,289.679 413.019,289.416C413.179,289.255 413.447,289.005 413.886,289.109C413.944,289.123 414.1,289.146 414.311,289.312C414.368,289.354 414.42,289.402 414.468,289.454L414.456,289.472C414.431,289.514 414.492,289.552 414.572,289.598L414.564,289.571L414.489,289.476L414.468,289.454C414.507,289.414 414.54,289.494 414.564,289.571L414.565,289.572L414.588,289.606C414.635,289.634 414.688,289.663 414.733,289.699C415.435,290.25 417.028,291.314 419.311,292.187C420.48,292.651 421.89,293.119 423.192,293.444C424.123,293.677 424.994,293.84 425.665,293.832C426.099,293.835 427.228,293.744 428.338,293.55C428.94,293.445 429.538,293.321 430.002,293.135C431.27,292.654 432.386,292.015 433.348,291.395C434.78,290.474 435.861,289.588 436.44,288.985C436.525,288.897 436.614,288.8 436.684,288.723Z"/>
        </g>
        <g transform="matrix(1.04294,-0.636497,0.846302,1.38672,-189.603,-89.7443)">
            <path d="M46.579,415.885C46.597,416.546 46.261,417.185 45.646,417.657C45.031,418.129 44.189,418.395 43.31,418.395C40.929,418.395 37.743,418.395 35.377,418.395C34.515,418.395 33.69,418.134 33.087,417.671C32.484,417.208 32.154,416.582 32.172,415.935C32.625,399.388 35.226,304.49 35.675,288.133C35.711,286.8 37.159,285.733 38.933,285.733C39.235,285.733 39.541,285.733 39.842,285.733C41.603,285.733 43.041,286.792 43.077,288.116C43.524,304.407 46.122,399.193 46.579,415.885Z" style="fill:rgb(20,144,138);"/>
            <path d="M46.874,415.88L43.388,288.111C43.368,287.386 42.964,286.733 42.324,286.261C41.684,285.789 40.807,285.499 39.842,285.499C39.842,285.499 38.933,285.499 38.933,285.499C37.961,285.499 37.079,285.791 36.435,286.266C35.79,286.741 35.384,287.398 35.364,288.129C35.364,288.129 31.872,415.93 31.872,415.93C31.862,416.284 31.948,416.632 32.118,416.955C32.288,417.278 32.543,417.576 32.873,417.829C33.203,418.082 33.593,418.28 34.019,418.414C34.445,418.549 34.906,418.62 35.377,418.62C35.377,418.62 43.31,418.618 43.31,418.618C43.789,418.618 44.258,418.546 44.691,418.408C45.125,418.271 45.522,418.07 45.857,417.813C46.192,417.555 46.452,417.252 46.625,416.924C46.798,416.595 46.884,416.241 46.874,415.88ZM46.284,415.89C46.292,416.19 46.219,416.486 46.075,416.76C45.931,417.034 45.714,417.286 45.434,417.501C45.154,417.716 44.823,417.883 44.462,417.998C44.101,418.112 43.709,418.172 43.31,418.172C43.31,418.172 35.377,418.17 35.377,418.17C34.986,418.17 34.604,418.111 34.251,417.999C33.898,417.888 33.574,417.724 33.301,417.514C33.027,417.304 32.816,417.057 32.675,416.789C32.534,416.522 32.464,416.233 32.472,415.939C32.472,415.939 35.985,288.138 35.985,288.138C36.002,287.535 36.338,286.992 36.87,286.6C37.402,286.208 38.131,285.966 38.933,285.966C38.933,285.966 39.842,285.966 39.842,285.966C40.638,285.966 41.361,286.206 41.889,286.595C42.417,286.984 42.75,287.522 42.767,288.121C42.767,288.121 46.284,415.89 46.284,415.89Z"/>
        </g>
        <g transform="matrix(-0.953911,0.547774,-0.615508,-1.07186,425.725,716.883)">
            <path d="M46.557,415.084C46.581,415.954 46.209,416.797 45.525,417.42C44.842,418.044 43.905,418.395 42.926,418.395C40.723,418.395 37.943,418.395 35.753,418.395C34.794,418.395 33.875,418.051 33.205,417.44C32.535,416.829 32.17,416.003 32.193,415.149C32.695,396.864 35.16,306.89 35.654,288.876C35.702,287.128 37.308,285.733 39.273,285.733C39.35,285.733 39.427,285.733 39.505,285.733C41.455,285.733 43.05,287.118 43.098,288.853C43.589,306.794 46.052,396.642 46.557,415.084Z" style="fill:rgb(242,163,39);"/>
            <path d="M46.885,415.077L43.442,288.846C43.416,287.895 42.966,287.04 42.256,286.422C41.545,285.805 40.574,285.426 39.505,285.426C39.505,285.426 39.273,285.426 39.273,285.426C38.197,285.426 37.219,285.808 36.504,286.429C35.788,287.05 35.335,287.911 35.309,288.868C35.309,288.868 31.859,415.142 31.859,415.142C31.847,415.609 31.94,416.068 32.128,416.494C32.317,416.92 32.6,417.313 32.966,417.647C33.333,417.981 33.767,418.242 34.241,418.419C34.715,418.597 35.228,418.691 35.753,418.691C35.753,418.691 42.926,418.689 42.926,418.689C43.46,418.689 43.982,418.593 44.464,418.412C44.946,418.231 45.388,417.965 45.761,417.625C46.134,417.285 46.421,416.885 46.612,416.452C46.803,416.018 46.898,415.551 46.885,415.077ZM46.229,415.091C46.24,415.487 46.161,415.876 46.001,416.238C45.841,416.599 45.601,416.932 45.29,417.216C44.979,417.499 44.611,417.721 44.208,417.871C43.806,418.022 43.371,418.102 42.926,418.101C42.926,418.101 35.753,418.099 35.753,418.099C35.318,418.099 34.892,418.021 34.5,417.873C34.107,417.726 33.747,417.509 33.443,417.232C33.14,416.955 32.905,416.63 32.75,416.277C32.594,415.924 32.517,415.543 32.528,415.156C32.528,415.156 35.999,288.883 35.999,288.883C36.021,288.093 36.395,287.382 36.986,286.869C37.577,286.355 38.384,286.04 39.273,286.04C39.273,286.04 39.505,286.04 39.505,286.04C40.386,286.04 41.188,286.353 41.774,286.862C42.36,287.371 42.731,288.076 42.753,288.861C42.753,288.861 46.229,415.091 46.229,415.091Z"/>
        </g>
        <g transform="matrix(0.00368883,-1.1,1.23601,0.00414496,-108.808,125.711)">
            <path d="M46.557,415.084C46.581,415.954 46.209,416.797 45.525,417.42C44.842,418.044 43.905,418.395 42.926,418.395C40.723,418.395 37.943,418.395 35.753,418.395C34.794,418.395 33.875,418.051 33.205,417.44C32.535,416.829 32.17,416.003 32.193,415.149C32.695,396.864 35.16,306.89 35.654,288.876C35.702,287.128 37.308,285.733 39.273,285.733C39.35,285.733 39.427,285.733 39.505,285.733C41.455,285.733 43.05,287.118 43.098,288.853C43.589,306.794 46.052,396.642 46.557,415.084Z" style="fill:rgb(242,163,39);"/>
            <path d="M46.885,415.077L43.442,288.846C43.416,287.895 42.966,287.04 42.256,286.422C41.545,285.805 40.574,285.426 39.505,285.426C39.505,285.426 39.273,285.426 39.273,285.426C38.197,285.426 37.219,285.808 36.504,286.429C35.788,287.05 35.335,287.911 35.309,288.868C35.309,288.868 31.859,415.142 31.859,415.142C31.847,415.609 31.94,416.068 32.128,416.494C32.317,416.92 32.6,417.313 32.966,417.647C33.333,417.981 33.767,418.242 34.241,418.419C34.715,418.597 35.228,418.691 35.753,418.691C35.753,418.691 42.926,418.689 42.926,418.689C43.46,418.689 43.982,418.593 44.464,418.412C44.946,418.231 45.388,417.965 45.761,417.625C46.134,417.285 46.421,416.885 46.612,416.452C46.803,416.018 46.898,415.551 46.885,415.077ZM46.229,415.091C46.24,415.487 46.161,415.876 46.001,416.238C45.841,416.599 45.601,416.932 45.29,417.216C44.979,417.499 44.611,417.721 44.208,417.871C43.806,418.022 43.371,418.102 42.926,418.101C42.926,418.101 35.753,418.099 35.753,418.099C35.318,418.099 34.892,418.021 34.5,417.873C34.107,417.726 33.747,417.509 33.443,417.232C33.14,416.955 32.905,416.63 32.75,416.277C32.594,415.924 32.517,415.543 32.528,415.156C32.528,415.156 35.999,288.883 35.999,288.883C36.021,288.093 36.395,287.382 36.986,286.869C37.577,286.355 38.384,286.04 39.273,286.04C39.273,286.04 39.505,286.04 39.505,286.04C40.386,286.04 41.188,286.353 41.774,286.862C42.36,287.371 42.731,288.076 42.753,288.861C42.753,288.861 46.229,415.091 46.229,415.091Z"/>
        </g>
        <g transform="matrix(0.00832873,-1.09997,1.23598,0.0093586,-108.856,498.336)">
            <path d="M46.557,415.084C46.581,415.954 46.209,416.797 45.525,417.42C44.842,418.044 43.905,418.395 42.926,418.395C40.723,418.395 37.943,418.395 35.753,418.395C34.794,418.395 33.875,418.051 33.205,417.44C32.535,416.829 32.17,416.003 32.193,415.149C32.695,396.864 35.16,306.89 35.654,288.876C35.702,287.128 37.308,285.733 39.273,285.733C39.35,285.733 39.427,285.733 39.505,285.733C41.455,285.733 43.05,287.118 43.098,288.853C43.589,306.794 46.052,396.642 46.557,415.084Z" style="fill:rgb(242,163,39);"/>
            <path d="M46.885,415.077L43.442,288.846C43.416,287.895 42.966,287.04 42.256,286.422C41.545,285.805 40.574,285.426 39.505,285.426C39.505,285.426 39.273,285.426 39.273,285.426C38.197,285.426 37.219,285.808 36.504,286.429C35.788,287.05 35.335,287.911 35.309,288.868C35.309,288.868 31.859,415.142 31.859,415.142C31.847,415.609 31.94,416.068 32.128,416.494C32.317,416.92 32.6,417.313 32.966,417.647C33.333,417.981 33.767,418.242 34.241,418.419C34.715,418.597 35.228,418.691 35.753,418.691C35.753,418.691 42.926,418.689 42.926,418.689C43.46,418.689 43.982,418.593 44.464,418.412C44.946,418.231 45.388,417.965 45.761,417.625C46.134,417.285 46.421,416.885 46.612,416.452C46.803,416.018 46.898,415.551 46.885,415.077ZM46.229,415.091C46.24,415.487 46.161,415.876 46.001,416.238C45.841,416.599 45.601,416.932 45.29,417.216C44.979,417.499 44.611,417.721 44.208,417.871C43.806,418.022 43.371,418.102 42.926,418.101C42.926,418.101 35.753,418.099 35.753,418.099C35.318,418.099 34.892,418.021 34.5,417.873C34.107,417.726 33.747,417.509 33.443,417.232C33.14,416.955 32.905,416.63 32.75,416.277C32.594,415.924 32.517,415.543 32.528,415.156C32.528,415.156 35.999,288.883 35.999,288.883C36.021,288.093 36.395,287.382 36.986,286.869C37.577,286.355 38.384,286.04 39.273,286.04C39.273,286.04 39.505,286.04 39.505,286.04C40.386,286.04 41.188,286.353 41.774,286.862C42.36,287.371 42.731,288.076 42.753,288.861C42.753,288.861 46.229,415.091 46.229,415.091Z"/>
        </g>
        <g transform="matrix(0.937886,0.574781,-0.645854,1.05386,364.214,-213.199)">
            <path d="M46.557,415.084C46.581,415.954 46.209,416.797 45.525,417.42C44.842,418.044 43.905,418.395 42.926,418.395C40.723,418.395 37.943,418.395 35.753,418.395C34.794,418.395 33.875,418.051 33.205,417.44C32.535,416.829 32.17,416.003 32.193,415.149C32.695,396.864 35.16,306.89 35.654,288.876C35.702,287.128 37.308,285.733 39.273,285.733C39.35,285.733 39.427,285.733 39.505,285.733C41.455,285.733 43.05,287.118 43.098,288.853C43.589,306.794 46.052,396.642 46.557,415.084Z" style="fill:rgb(242,163,39);"/>
            <path d="M46.885,415.077L43.442,288.846C43.416,287.895 42.966,287.04 42.256,286.422C41.545,285.805 40.574,285.426 39.505,285.426C39.505,285.426 39.273,285.426 39.273,285.426C38.197,285.426 37.219,285.808 36.504,286.429C35.788,287.05 35.335,287.911 35.309,288.868C35.309,288.868 31.859,415.142 31.859,415.142C31.847,415.609 31.94,416.068 32.128,416.494C32.317,416.92 32.6,417.313 32.966,417.647C33.333,417.981 33.767,418.242 34.241,418.419C34.715,418.597 35.228,418.691 35.753,418.691C35.753,418.691 42.926,418.689 42.926,418.689C43.46,418.689 43.982,418.593 44.464,418.412C44.946,418.231 45.388,417.965 45.761,417.625C46.134,417.285 46.421,416.885 46.612,416.452C46.803,416.018 46.898,415.551 46.885,415.077ZM46.229,415.091C46.24,415.487 46.161,415.876 46.001,416.238C45.841,416.599 45.601,416.932 45.29,417.216C44.979,417.499 44.611,417.721 44.208,417.871C43.806,418.022 43.371,418.102 42.926,418.101C42.926,418.101 35.753,418.099 35.753,418.099C35.318,418.099 34.892,418.021 34.5,417.873C34.107,417.726 33.747,417.509 33.443,417.232C33.14,416.955 32.905,416.63 32.75,416.277C32.594,415.924 32.517,415.543 32.528,415.156C32.528,415.156 35.999,288.883 35.999,288.883C36.021,288.093 36.395,287.382 36.986,286.869C37.577,286.355 38.384,286.04 39.273,286.04C39.273,286.04 39.505,286.04 39.505,286.04C40.386,286.04 41.188,286.353 41.774,286.862C42.36,287.371 42.731,288.076 42.753,288.861C42.753,288.861 46.229,415.091 46.229,415.091Z"/>
        </g>
        <g transform="matrix(0.150416,1.16718,-0.587099,0.0756604,514.678,206.897)">
            <path d="M46.453,411.278C46.504,413.129 46.169,414.94 45.528,416.287C44.887,417.633 43.995,418.395 43.063,418.395C40.794,418.395 37.874,418.395 35.619,418.395C34.705,418.395 33.831,417.648 33.202,416.328C32.574,415.009 32.246,413.233 32.296,411.419C32.93,388.284 34.957,314.3 35.566,292.094C35.664,288.526 37.147,285.733 38.945,285.733L39.831,285.733C41.615,285.733 43.088,288.506 43.185,292.048C43.791,314.154 45.814,387.969 46.453,411.278Z" style="fill:rgb(151,41,94);"/>
            <path d="M46.759,411.245L43.506,292.013C43.453,290.073 43.023,288.342 42.362,287.097C41.701,285.852 40.808,285.093 39.831,285.092C39.831,285.092 38.945,285.092 38.945,285.092C37.96,285.092 37.062,285.857 36.396,287.11C35.731,288.363 35.297,290.105 35.244,292.059C35.244,292.059 31.977,411.384 31.977,411.384C31.95,412.378 32.027,413.362 32.196,414.277C32.366,415.192 32.628,416.039 32.972,416.761C33.317,417.484 33.728,418.049 34.179,418.434C34.629,418.818 35.118,419.022 35.619,419.022C35.619,419.022 43.063,419.012 43.063,419.012C43.572,419.011 44.069,418.803 44.527,418.411C44.984,418.018 45.402,417.443 45.752,416.708C46.101,415.974 46.367,415.112 46.539,414.182C46.71,413.253 46.787,412.254 46.759,411.245ZM46.147,411.311C46.169,412.153 46.105,412.986 45.961,413.761C45.818,414.536 45.596,415.253 45.304,415.865C45.012,416.476 44.664,416.955 44.282,417.281C43.901,417.606 43.486,417.779 43.063,417.778C43.063,417.778 35.619,417.769 35.619,417.769C35.205,417.768 34.801,417.598 34.428,417.279C34.056,416.96 33.717,416.492 33.432,415.895C33.148,415.298 32.932,414.597 32.793,413.841C32.654,413.086 32.591,412.274 32.614,411.453C32.614,411.453 35.888,292.129 35.888,292.129C35.932,290.515 36.29,289.076 36.84,288.041C37.39,287.005 38.132,286.373 38.945,286.373C38.945,286.373 39.831,286.373 39.831,286.373C40.637,286.373 41.374,287 41.919,288.027C42.465,289.054 42.82,290.481 42.864,292.083C42.864,292.083 46.147,411.311 46.147,411.311Z"/>
        </g>
        <g transform="matrix(0.845416,0.528506,-0.530086,0.847944,105.054,-89.6795)">
            <path d="M272.147,105.937C272.085,105.989 233.666,135.716 227.643,159.791C222.943,178.58 258.25,207.114 268.661,214.641C269.492,215.23 270.543,215.419 271.528,215.155C277.023,213.628 280.62,209.396 278.693,206.6C275.466,201.916 235.416,170.625 235.667,161.119C235.943,150.661 275.644,122.847 278.163,118.312C278.291,118.081 278.467,117.71 278.395,117.306C277.941,114.775 275.227,106.7 273.595,105.776C273.384,105.656 272.755,105.43 272.147,105.937Z" style="fill:rgb(151,41,94);"/>
            <path d="M271.915,105.66C271.873,105.695 254.555,119.083 241.327,135.173C234.798,143.115 229.27,151.718 227.272,159.699C225.332,167.455 230.081,176.872 237.157,185.798C247.33,198.631 262.258,210.481 268.437,214.949C268.901,215.278 269.425,215.495 269.969,215.592C270.514,215.69 271.079,215.669 271.627,215.522C274.516,214.719 276.889,213.187 278.265,211.502C279.673,209.777 280.043,207.888 279.007,206.385C276.872,203.287 258.654,188.558 246.599,176.176C243.01,172.49 239.969,169.013 238.077,166.118C236.772,164.121 236.01,162.421 236.044,161.129C236.079,159.785 236.806,158.15 238.019,156.303C239.873,153.48 242.862,150.195 246.396,146.757C254.492,138.879 265.437,130.211 272.233,124.465C275.579,121.636 277.924,119.493 278.482,118.488C278.579,118.313 278.697,118.069 278.749,117.791C278.781,117.618 278.788,117.433 278.754,117.242C278.498,115.816 277.533,112.647 276.442,109.962C275.831,108.458 275.178,107.105 274.591,106.284C274.305,105.885 274.024,105.604 273.774,105.462C273.608,105.368 273.243,105.221 272.806,105.269C272.528,105.3 272.219,105.407 271.915,105.66ZM272.379,106.214C272.552,106.069 272.726,106.004 272.885,105.987C273.125,105.961 273.325,106.038 273.416,106.09C273.678,106.238 273.958,106.606 274.265,107.105C274.754,107.899 275.274,109.015 275.768,110.233C276.837,112.866 277.786,115.972 278.036,117.37C278.059,117.499 278.044,117.623 278.014,117.735C277.972,117.894 277.901,118.032 277.844,118.136C277.302,119.11 275.005,121.165 271.759,123.907C264.95,129.659 253.985,138.337 245.874,146.224C242.294,149.704 239.268,153.033 237.389,155.892C236.081,157.883 235.328,159.66 235.289,161.11C235.252,162.507 236.032,164.367 237.444,166.529C239.357,169.456 242.427,172.974 246.056,176.702C258.075,189.05 276.251,203.726 278.38,206.815C279.234,208.055 278.836,209.6 277.674,211.022C276.38,212.607 274.139,214.035 271.425,214.789C270.991,214.905 270.539,214.921 270.104,214.843C269.669,214.765 269.251,214.593 268.882,214.331C262.736,209.887 247.881,198.096 237.758,185.325C230.851,176.611 226.12,167.455 228.015,159.883C229.986,151.996 235.465,143.503 241.913,135.651C255.089,119.608 272.337,106.248 272.379,106.214Z"/>
        </g>
        <g transform="matrix(-0.0269219,1.22153,-1.62417,-0.035796,903.536,446.416)">
            <path d="M46.579,415.885C46.597,416.546 46.261,417.185 45.646,417.657C45.031,418.129 44.189,418.395 43.31,418.395C40.929,418.395 37.743,418.395 35.377,418.395C34.515,418.395 33.69,418.134 33.087,417.671C32.484,417.208 32.154,416.582 32.172,415.935C32.625,399.388 35.226,304.49 35.675,288.133C35.711,286.8 37.159,285.733 38.933,285.733C39.235,285.733 39.541,285.733 39.842,285.733C41.603,285.733 43.041,286.792 43.077,288.116C43.524,304.407 46.122,399.193 46.579,415.885Z" style="fill:rgb(20,144,138);"/>
            <path d="M46.874,415.88L43.388,288.111C43.368,287.386 42.964,286.733 42.324,286.261C41.684,285.789 40.807,285.499 39.842,285.499C39.842,285.499 38.933,285.499 38.933,285.499C37.961,285.499 37.079,285.791 36.435,286.266C35.79,286.741 35.384,287.398 35.364,288.129C35.364,288.129 31.872,415.93 31.872,415.93C31.862,416.284 31.948,416.632 32.118,416.955C32.288,417.278 32.543,417.576 32.873,417.829C33.203,418.082 33.593,418.28 34.019,418.414C34.445,418.549 34.906,418.62 35.377,418.62C35.377,418.62 43.31,418.618 43.31,418.618C43.789,418.618 44.258,418.546 44.691,418.408C45.125,418.271 45.522,418.07 45.857,417.813C46.192,417.555 46.452,417.252 46.625,416.924C46.798,416.595 46.884,416.241 46.874,415.88ZM46.284,415.89C46.292,416.19 46.219,416.486 46.075,416.76C45.931,417.034 45.714,417.286 45.434,417.501C45.154,417.716 44.823,417.883 44.462,417.998C44.101,418.112 43.709,418.172 43.31,418.172C43.31,418.172 35.377,418.17 35.377,418.17C34.986,418.17 34.604,418.111 34.251,417.999C33.898,417.888 33.574,417.724 33.301,417.514C33.027,417.304 32.816,417.057 32.675,416.789C32.534,416.522 32.464,416.233 32.472,415.939C32.472,415.939 35.985,288.138 35.985,288.138C36.002,287.535 36.338,286.992 36.87,286.6C37.402,286.208 38.131,285.966 38.933,285.966C38.933,285.966 39.842,285.966 39.842,285.966C40.638,285.966 41.361,286.206 41.889,286.595C42.417,286.984 42.75,287.522 42.767,288.121C42.767,288.121 46.284,415.89 46.284,415.89Z"/>
        </g>
        <g transform="matrix(0.0221199,1.22162,-1.6243,0.0294111,902.2,2.84411)">
            <path d="M46.579,415.885C46.597,416.546 46.261,417.185 45.646,417.657C45.031,418.129 44.189,418.395 43.31,418.395C40.929,418.395 37.743,418.395 35.377,418.395C34.515,418.395 33.69,418.134 33.087,417.671C32.484,417.208 32.154,416.582 32.172,415.935C32.625,399.388 35.226,304.49 35.675,288.133C35.711,286.8 37.159,285.733 38.933,285.733C39.235,285.733 39.541,285.733 39.842,285.733C41.603,285.733 43.041,286.792 43.077,288.116C43.524,304.407 46.122,399.193 46.579,415.885Z" style="fill:rgb(20,144,138);"/>
            <path d="M46.874,415.88L43.388,288.111C43.368,287.386 42.964,286.733 42.324,286.261C41.684,285.789 40.807,285.499 39.842,285.499C39.842,285.499 38.933,285.499 38.933,285.499C37.961,285.499 37.079,285.791 36.435,286.266C35.79,286.741 35.384,287.398 35.364,288.129C35.364,288.129 31.872,415.93 31.872,415.93C31.862,416.284 31.948,416.632 32.118,416.955C32.288,417.278 32.543,417.576 32.873,417.829C33.203,418.082 33.593,418.28 34.019,418.414C34.445,418.549 34.906,418.62 35.377,418.62C35.377,418.62 43.31,418.618 43.31,418.618C43.789,418.618 44.258,418.546 44.691,418.408C45.125,418.271 45.522,418.07 45.857,417.813C46.192,417.555 46.452,417.252 46.625,416.924C46.798,416.595 46.884,416.241 46.874,415.88ZM46.284,415.89C46.292,416.19 46.219,416.486 46.075,416.76C45.931,417.034 45.714,417.286 45.434,417.501C45.154,417.716 44.823,417.883 44.462,417.998C44.101,418.112 43.709,418.172 43.31,418.172C43.31,418.172 35.377,418.17 35.377,418.17C34.986,418.17 34.604,418.111 34.251,417.999C33.898,417.888 33.574,417.724 33.301,417.514C33.027,417.304 32.816,417.057 32.675,416.789C32.534,416.522 32.464,416.233 32.472,415.939C32.472,415.939 35.985,288.138 35.985,288.138C36.002,287.535 36.338,286.992 36.87,286.6C37.402,286.208 38.131,285.966 38.933,285.966C38.933,285.966 39.842,285.966 39.842,285.966C40.638,285.966 41.361,286.206 41.889,286.595C42.417,286.984 42.75,287.522 42.767,288.121C42.767,288.121 46.284,415.89 46.284,415.89Z"/>
        </g>
        <g transform="matrix(-1.03744,-0.645424,0.858171,-1.3794,-111.462,681.022)">
            <path d="M46.579,415.885C46.597,416.546 46.261,417.185 45.646,417.657C45.031,418.129 44.189,418.395 43.31,418.395C40.929,418.395 37.743,418.395 35.377,418.395C34.515,418.395 33.69,418.134 33.087,417.671C32.484,417.208 32.154,416.582 32.172,415.935C32.625,399.388 35.226,304.49 35.675,288.133C35.711,286.8 37.159,285.733 38.933,285.733C39.235,285.733 39.541,285.733 39.842,285.733C41.603,285.733 43.041,286.792 43.077,288.116C43.524,304.407 46.122,399.193 46.579,415.885Z" style="fill:rgb(20,144,138);"/>
            <path d="M46.874,415.88L43.388,288.111C43.368,287.386 42.964,286.733 42.324,286.261C41.684,285.789 40.807,285.499 39.842,285.499C39.842,285.499 38.933,285.499 38.933,285.499C37.961,285.499 37.079,285.791 36.435,286.266C35.79,286.741 35.384,287.398 35.364,288.129C35.364,288.129 31.872,415.93 31.872,415.93C31.862,416.284 31.948,416.632 32.118,416.955C32.288,417.278 32.543,417.576 32.873,417.829C33.203,418.082 33.593,418.28 34.019,418.414C34.445,418.549 34.906,418.62 35.377,418.62C35.377,418.62 43.31,418.618 43.31,418.618C43.789,418.618 44.258,418.546 44.691,418.408C45.125,418.271 45.522,418.07 45.857,417.813C46.192,417.555 46.452,417.252 46.625,416.924C46.798,416.595 46.884,416.241 46.874,415.88ZM46.284,415.89C46.292,416.19 46.219,416.486 46.075,416.76C45.931,417.034 45.714,417.286 45.434,417.501C45.154,417.716 44.823,417.883 44.462,417.998C44.101,418.112 43.709,418.172 43.31,418.172C43.31,418.172 35.377,418.17 35.377,418.17C34.986,418.17 34.604,418.111 34.251,417.999C33.898,417.888 33.574,417.724 33.301,417.514C33.027,417.304 32.816,417.057 32.675,416.789C32.534,416.522 32.464,416.233 32.472,415.939C32.472,415.939 35.985,288.138 35.985,288.138C36.002,287.535 36.338,286.992 36.87,286.6C37.402,286.208 38.131,285.966 38.933,285.966C38.933,285.966 39.842,285.966 39.842,285.966C40.638,285.966 41.361,286.206 41.889,286.595C42.417,286.984 42.75,287.522 42.767,288.121C42.767,288.121 46.284,415.89 46.284,415.89Z"/>
        </g>
        <g id="Wifi" transform="matrix(2.56566,5.02922,-5.02922,2.56566,1628.89,-602.846)">
            <path d="M41.842,288.097C45.541,288.097 48.93,289.389 51.604,291.535C51.879,291.756 52.272,291.733 52.508,291.47L53.527,290.338C53.779,290.057 53.754,289.613 53.462,289.374C50.288,286.778 46.25,285 41.842,285C37.439,285 33.408,286.772 30.239,289.36C29.946,289.599 29.92,290.042 30.173,290.324L31.19,291.457C31.425,291.72 31.818,291.743 32.092,291.523C34.764,289.384 38.148,288.097 41.842,288.097ZM41.842,294.205C43.972,294.205 45.936,294.91 47.518,296.094C47.798,296.302 48.182,296.279 48.414,296.021L49.545,294.763C49.801,294.479 49.774,294.029 49.473,293.796C47.361,292.156 44.718,291.11 41.842,291.11C38.971,291.11 36.33,292.153 34.221,293.788C33.92,294.021 33.893,294.471 34.147,294.754L35.276,296.014C35.509,296.273 35.894,296.297 36.173,296.088C37.754,294.907 39.715,294.205 41.842,294.205ZM45.496,299.264C45.767,298.961 45.708,298.485 45.371,298.258C44.357,297.577 43.144,297.134 41.841,297.134C40.539,297.134 39.33,297.576 38.316,298.254C37.978,298.48 37.919,298.957 38.191,299.26L41.351,302.782C41.613,303.073 42.068,303.073 42.331,302.782L45.496,299.264Z" style="fill:rgb(151,41,94);stroke:black;stroke-width:0.18px;"/>
        </g>
    </g>
    <g transform="matrix(0.878494,-0.596755,0.226176,0.332958,259.643,209.813)">
        <path d="M46.356,407.753C46.432,410.503 46.07,413.211 45.358,415.23C44.647,417.248 43.649,418.395 42.604,418.395C40.563,418.395 38.098,418.395 36.069,418.395C35.044,418.395 34.066,417.271 33.369,415.292C32.671,413.314 32.317,410.659 32.39,407.963C33.082,382.744 34.834,318.792 35.489,294.912C35.631,289.739 37.263,285.733 39.228,285.733C39.335,285.733 39.442,285.733 39.549,285.733C41.501,285.733 43.121,289.71 43.262,294.846C43.913,318.608 45.66,382.366 46.356,407.753Z" style="fill:rgb(151,41,94);"/>
        <path d="M46.695,407.688L43.617,294.778C43.54,291.965 43.058,289.468 42.327,287.675C41.597,285.882 40.618,284.792 39.549,284.792C39.549,284.792 39.228,284.792 39.228,284.792C38.152,284.791 37.167,285.888 36.431,287.693C35.696,289.498 35.21,292.011 35.132,294.844C35.132,294.844 32.034,407.895 32.034,407.895C31.994,409.373 32.071,410.84 32.254,412.209C32.437,413.576 32.726,414.846 33.109,415.93C33.492,417.013 33.951,417.862 34.455,418.44C34.959,419.018 35.508,419.325 36.069,419.323C36.069,419.323 42.604,419.307 42.604,419.307C43.174,419.306 43.732,418.992 44.243,418.402C44.755,417.812 45.221,416.948 45.609,415.846C45.997,414.744 46.289,413.454 46.474,412.065C46.659,410.676 46.737,409.187 46.695,407.688ZM46.017,407.817C46.051,409.068 45.986,410.309 45.831,411.467C45.676,412.624 45.431,413.697 45.107,414.614C44.784,415.53 44.395,416.248 43.969,416.737C43.542,417.226 43.078,417.484 42.604,417.483C42.604,417.483 36.069,417.467 36.069,417.467C35.605,417.466 35.153,417.21 34.737,416.731C34.322,416.253 33.943,415.55 33.628,414.655C33.313,413.76 33.076,412.713 32.926,411.585C32.776,410.457 32.713,409.249 32.747,408.031C32.747,408.031 35.845,294.98 35.845,294.98C35.909,292.64 36.31,290.564 36.918,289.072C37.525,287.581 38.339,286.674 39.228,286.674C39.228,286.674 39.549,286.674 39.549,286.674C40.431,286.674 41.239,287.572 41.842,289.052C42.445,290.531 42.843,292.592 42.907,294.914C42.907,294.914 46.017,407.817 46.017,407.817Z"/>
    </g>
    <g transform="matrix(0.129714,0.872404,-0.314398,0.0467464,531.968,264.175)">
        <path d="M46.277,404.872C46.373,408.361 45.94,411.803 45.083,414.37C44.225,416.936 43.021,418.395 41.76,418.395C40.192,418.395 38.457,418.395 36.896,418.395C35.659,418.395 34.479,416.965 33.639,414.449C32.798,411.933 32.374,408.559 32.468,405.139C33.195,378.612 34.814,319.515 35.464,295.833C35.62,290.135 37.331,285.733 39.391,285.733C39.392,285.733 39.392,285.733 39.393,285.733C41.435,285.733 43.132,290.097 43.286,295.746C43.932,319.291 45.546,378.184 46.277,404.872Z" style="fill:rgb(151,41,94);"/>
        <path d="M46.685,404.786L43.714,295.656C43.628,292.521 43.114,289.743 42.339,287.748C41.563,285.753 40.526,284.542 39.393,284.541C39.393,284.541 39.391,284.541 39.391,284.541C38.249,284.541 37.203,285.761 36.421,287.771C35.639,289.782 35.121,292.583 35.034,295.743C35.034,295.743 32.037,405.048 32.037,405.048C31.986,406.925 32.077,408.788 32.297,410.527C32.516,412.265 32.863,413.879 33.325,415.257C33.786,416.634 34.34,417.715 34.948,418.449C35.556,419.183 36.218,419.573 36.896,419.571C36.896,419.571 41.76,419.555 41.76,419.555C42.449,419.553 43.122,419.153 43.739,418.402C44.357,417.652 44.919,416.552 45.386,415.15C45.853,413.748 46.204,412.108 46.426,410.343C46.647,408.578 46.738,406.688 46.685,404.786ZM45.869,404.958C45.912,406.545 45.835,408.12 45.649,409.591C45.463,411.06 45.17,412.424 44.779,413.59C44.389,414.754 43.921,415.666 43.407,416.288C42.893,416.908 42.333,417.237 41.76,417.235C41.76,417.235 36.896,417.219 36.896,417.219C36.337,417.217 35.79,416.892 35.289,416.282C34.788,415.673 34.332,414.78 33.953,413.642C33.574,412.504 33.289,411.173 33.109,409.74C32.93,408.308 32.856,406.774 32.899,405.23C32.899,405.23 35.893,295.924 35.893,295.924C35.962,293.386 36.378,291.136 37.006,289.521C37.634,287.906 38.474,286.925 39.391,286.924C39.391,286.924 39.393,286.924 39.393,286.924C40.302,286.924 41.134,287.895 41.756,289.494C42.378,291.094 42.79,293.322 42.859,295.836C42.859,295.836 45.869,404.958 45.869,404.958Z"/>
    </g>
    <g transform="matrix(-0.721587,0.507176,-0.182776,-0.260046,481.344,366.99)">
        <path d="M46.277,404.872C46.373,408.361 45.94,411.803 45.083,414.37C44.225,416.936 43.021,418.395 41.76,418.395C40.192,418.395 38.457,418.395 36.896,418.395C35.659,418.395 34.479,416.965 33.639,414.449C32.798,411.933 32.374,408.559 32.468,405.139C33.195,378.612 34.814,319.515 35.464,295.833C35.62,290.135 37.331,285.733 39.391,285.733C39.392,285.733 39.392,285.733 39.393,285.733C41.435,285.733 43.132,290.097 43.286,295.746C43.932,319.291 45.546,378.184 46.277,404.872Z" style="fill:rgb(151,41,94);"/>
        <path d="M46.685,404.786L43.714,295.656C43.628,292.521 43.114,289.743 42.339,287.748C41.563,285.753 40.526,284.542 39.393,284.541C39.393,284.541 39.391,284.541 39.391,284.541C38.249,284.541 37.203,285.761 36.421,287.771C35.639,289.782 35.121,292.583 35.034,295.743C35.034,295.743 32.037,405.048 32.037,405.048C31.986,406.925 32.077,408.788 32.297,410.527C32.516,412.265 32.863,413.879 33.325,415.257C33.786,416.634 34.34,417.715 34.948,418.449C35.556,419.183 36.218,419.573 36.896,419.571C36.896,419.571 41.76,419.555 41.76,419.555C42.449,419.553 43.122,419.153 43.739,418.402C44.357,417.652 44.919,416.552 45.386,415.15C45.853,413.748 46.204,412.108 46.426,410.343C46.647,408.578 46.738,406.688 46.685,404.786ZM45.869,404.958C45.912,406.545 45.835,408.12 45.649,409.591C45.463,411.06 45.17,412.424 44.779,413.59C44.389,414.754 43.921,415.666 43.407,416.288C42.893,416.908 42.333,417.237 41.76,417.235C41.76,417.235 36.896,417.219 36.896,417.219C36.337,417.217 35.79,416.892 35.289,416.282C34.788,415.673 34.332,414.78 33.953,413.642C33.574,412.504 33.289,411.173 33.109,409.74C32.93,408.308 32.856,406.774 32.899,405.23C32.899,405.23 35.893,295.924 35.893,295.924C35.962,293.386 36.378,291.136 37.006,289.521C37.634,287.906 38.474,286.925 39.391,286.924C39.391,286.924 39.393,286.924 39.393,286.924C40.302,286.924 41.134,287.895 41.756,289.494C42.378,291.094 42.79,293.322 42.859,295.836C42.859,295.836 45.869,404.958 45.869,404.958Z"/>
    </g>
    <g transform="matrix(0.739875,0.480105,-0.17302,0.266637,495.807,180.849)">
        <path d="M46.277,404.872C46.373,408.361 45.94,411.803 45.083,414.37C44.225,416.936 43.021,418.395 41.76,418.395C40.192,418.395 38.457,418.395 36.896,418.395C35.659,418.395 34.479,416.965 33.639,414.449C32.798,411.933 32.374,408.559 32.468,405.139C33.195,378.612 34.814,319.515 35.464,295.833C35.62,290.135 37.331,285.733 39.391,285.733C39.392,285.733 39.392,285.733 39.393,285.733C41.435,285.733 43.132,290.097 43.286,295.746C43.932,319.291 45.546,378.184 46.277,404.872Z" style="fill:rgb(151,41,94);"/>
        <path d="M46.685,404.786L43.714,295.656C43.628,292.521 43.114,289.743 42.339,287.748C41.563,285.753 40.526,284.542 39.393,284.541C39.393,284.541 39.391,284.541 39.391,284.541C38.249,284.541 37.203,285.761 36.421,287.771C35.639,289.782 35.121,292.583 35.034,295.743C35.034,295.743 32.037,405.048 32.037,405.048C31.986,406.925 32.077,408.788 32.297,410.527C32.516,412.265 32.863,413.879 33.325,415.257C33.786,416.634 34.34,417.715 34.948,418.449C35.556,419.183 36.218,419.573 36.896,419.571C36.896,419.571 41.76,419.555 41.76,419.555C42.449,419.553 43.122,419.153 43.739,418.402C44.357,417.652 44.919,416.552 45.386,415.15C45.853,413.748 46.204,412.108 46.426,410.343C46.647,408.578 46.738,406.688 46.685,404.786ZM45.869,404.958C45.912,406.545 45.835,408.12 45.649,409.591C45.463,411.06 45.17,412.424 44.779,413.59C44.389,414.754 43.921,415.666 43.407,416.288C42.893,416.908 42.333,417.237 41.76,417.235C41.76,417.235 36.896,417.219 36.896,417.219C36.337,417.217 35.79,416.892 35.289,416.282C34.788,415.673 34.332,414.78 33.953,413.642C33.574,412.504 33.289,411.173 33.109,409.74C32.93,408.308 32.856,406.774 32.899,405.23C32.899,405.23 35.893,295.924 35.893,295.924C35.962,293.386 36.378,291.136 37.006,289.521C37.634,287.906 38.474,286.925 39.391,286.924C39.391,286.924 39.393,286.924 39.393,286.924C40.302,286.924 41.134,287.895 41.756,289.494C42.378,291.094 42.79,293.322 42.859,295.836C42.859,295.836 45.869,404.958 45.869,404.958Z"/>
    </g>
    <g transform="matrix(-0.0451015,-0.880841,0.317438,-0.0162537,312.954,274.155)">
        <path d="M46.277,404.872C46.373,408.361 45.94,411.803 45.083,414.37C44.225,416.936 43.021,418.395 41.76,418.395C40.192,418.395 38.457,418.395 36.896,418.395C35.659,418.395 34.479,416.965 33.639,414.449C32.798,411.933 32.374,408.559 32.468,405.139C33.195,378.612 34.814,319.515 35.464,295.833C35.62,290.135 37.331,285.733 39.391,285.733C39.392,285.733 39.392,285.733 39.393,285.733C41.435,285.733 43.132,290.097 43.286,295.746C43.932,319.291 45.546,378.184 46.277,404.872Z" style="fill:rgb(151,41,94);"/>
        <path d="M46.685,404.786L43.714,295.656C43.628,292.521 43.114,289.743 42.339,287.748C41.563,285.753 40.526,284.542 39.393,284.541C39.393,284.541 39.391,284.541 39.391,284.541C38.249,284.541 37.203,285.761 36.421,287.771C35.639,289.782 35.121,292.583 35.034,295.743C35.034,295.743 32.037,405.048 32.037,405.048C31.986,406.925 32.077,408.788 32.297,410.527C32.516,412.265 32.863,413.879 33.325,415.257C33.786,416.634 34.34,417.715 34.948,418.449C35.556,419.183 36.218,419.573 36.896,419.571C36.896,419.571 41.76,419.555 41.76,419.555C42.449,419.553 43.122,419.153 43.739,418.402C44.357,417.652 44.919,416.552 45.386,415.15C45.853,413.748 46.204,412.108 46.426,410.343C46.647,408.578 46.738,406.688 46.685,404.786ZM45.869,404.958C45.912,406.545 45.835,408.12 45.649,409.591C45.463,411.06 45.17,412.424 44.779,413.59C44.389,414.754 43.921,415.666 43.407,416.288C42.893,416.908 42.333,417.237 41.76,417.235C41.76,417.235 36.896,417.219 36.896,417.219C36.337,417.217 35.79,416.892 35.289,416.282C34.788,415.673 34.332,414.78 33.953,413.642C33.574,412.504 33.289,411.173 33.109,409.74C32.93,408.308 32.856,406.774 32.899,405.23C32.899,405.23 35.893,295.924 35.893,295.924C35.962,293.386 36.378,291.136 37.006,289.521C37.634,287.906 38.474,286.925 39.391,286.924C39.391,286.924 39.393,286.924 39.393,286.924C40.302,286.924 41.134,287.895 41.756,289.494C42.378,291.094 42.79,293.322 42.859,295.836C42.859,295.836 45.869,404.958 45.869,404.958Z"/>
    </g>
    <g transform="matrix(-0.704307,0.530911,-0.19133,-0.253819,558.108,321.791)">
        <path d="M46.277,404.872C46.373,408.361 45.94,411.803 45.083,414.37C44.225,416.936 43.021,418.395 41.76,418.395C40.192,418.395 38.457,418.395 36.896,418.395C35.659,418.395 34.479,416.965 33.639,414.449C32.798,411.933 32.374,408.559 32.468,405.139C33.195,378.612 34.814,319.515 35.464,295.833C35.62,290.135 37.331,285.733 39.391,285.733C39.392,285.733 39.392,285.733 39.393,285.733C41.435,285.733 43.132,290.097 43.286,295.746C43.932,319.291 45.546,378.184 46.277,404.872Z" style="fill:rgb(151,41,94);"/>
        <path d="M46.685,404.786L43.714,295.656C43.628,292.521 43.114,289.743 42.339,287.748C41.563,285.753 40.526,284.542 39.393,284.541C39.393,284.541 39.391,284.541 39.391,284.541C38.249,284.541 37.203,285.761 36.421,287.771C35.639,289.782 35.121,292.583 35.034,295.743C35.034,295.743 32.037,405.048 32.037,405.048C31.986,406.925 32.077,408.788 32.297,410.527C32.516,412.265 32.863,413.879 33.325,415.257C33.786,416.634 34.34,417.715 34.948,418.449C35.556,419.183 36.218,419.573 36.896,419.571C36.896,419.571 41.76,419.555 41.76,419.555C42.449,419.553 43.122,419.153 43.739,418.402C44.357,417.652 44.919,416.552 45.386,415.15C45.853,413.748 46.204,412.108 46.426,410.343C46.647,408.578 46.738,406.688 46.685,404.786ZM45.869,404.958C45.912,406.545 45.835,408.12 45.649,409.591C45.463,411.06 45.17,412.424 44.779,413.59C44.389,414.754 43.921,415.666 43.407,416.288C42.893,416.908 42.333,417.237 41.76,417.235C41.76,417.235 36.896,417.219 36.896,417.219C36.337,417.217 35.79,416.892 35.289,416.282C34.788,415.673 34.332,414.78 33.953,413.642C33.574,412.504 33.289,411.173 33.109,409.74C32.93,408.308 32.856,406.774 32.899,405.23C32.899,405.23 35.893,295.924 35.893,295.924C35.962,293.386 36.378,291.136 37.006,289.521C37.634,287.906 38.474,286.925 39.391,286.924C39.391,286.924 39.393,286.924 39.393,286.924C40.302,286.924 41.134,287.895 41.756,289.494C42.378,291.094 42.79,293.322 42.859,295.836C42.859,295.836 45.869,404.958 45.869,404.958Z"/>
    </g>
    <g transform="matrix(0.741018,0.478338,-0.172384,0.267049,417.046,139.632)">
        <path d="M46.277,404.872C46.373,408.361 45.94,411.803 45.083,414.37C44.225,416.936 43.021,418.395 41.76,418.395C40.192,418.395 38.457,418.395 36.896,418.395C35.659,418.395 34.479,416.965 33.639,414.449C32.798,411.933 32.374,408.559 32.468,405.139C33.195,378.612 34.814,319.515 35.464,295.833C35.62,290.135 37.331,285.733 39.391,285.733C39.392,285.733 39.392,285.733 39.393,285.733C41.435,285.733 43.132,290.097 43.286,295.746C43.932,319.291 45.546,378.184 46.277,404.872Z" style="fill:rgb(151,41,94);"/>
        <path d="M46.685,404.786L43.714,295.656C43.628,292.521 43.114,289.743 42.339,287.748C41.563,285.753 40.526,284.542 39.393,284.541C39.393,284.541 39.391,284.541 39.391,284.541C38.249,284.541 37.203,285.761 36.421,287.771C35.639,289.782 35.121,292.583 35.034,295.743C35.034,295.743 32.037,405.048 32.037,405.048C31.986,406.925 32.077,408.788 32.297,410.527C32.516,412.265 32.863,413.879 33.325,415.257C33.786,416.634 34.34,417.715 34.948,418.449C35.556,419.183 36.218,419.573 36.896,419.571C36.896,419.571 41.76,419.555 41.76,419.555C42.449,419.553 43.122,419.153 43.739,418.402C44.357,417.652 44.919,416.552 45.386,415.15C45.853,413.748 46.204,412.108 46.426,410.343C46.647,408.578 46.738,406.688 46.685,404.786ZM45.869,404.958C45.912,406.545 45.835,408.12 45.649,409.591C45.463,411.06 45.17,412.424 44.779,413.59C44.389,414.754 43.921,415.666 43.407,416.288C42.893,416.908 42.333,417.237 41.76,417.235C41.76,417.235 36.896,417.219 36.896,417.219C36.337,417.217 35.79,416.892 35.289,416.282C34.788,415.673 34.332,414.78 33.953,413.642C33.574,412.504 33.289,411.173 33.109,409.74C32.93,408.308 32.856,406.774 32.899,405.23C32.899,405.23 35.893,295.924 35.893,295.924C35.962,293.386 36.378,291.136 37.006,289.521C37.634,287.906 38.474,286.925 39.391,286.924C39.391,286.924 39.393,286.924 39.393,286.924C40.302,286.924 41.134,287.895 41.756,289.494C42.378,291.094 42.79,293.322 42.859,295.836C42.859,295.836 45.869,404.958 45.869,404.958Z"/>
    </g>
</svg>
